<svg id="Layer_1" data-name="Layer 1" xmlns="http://www.w3.org/2000/svg" xmlns:xlink="http://www.w3.org/1999/xlink" viewBox="0 0 269.68 269.68"><defs><style>.cls-1{fill:none;}.cls-2{fill:#3e3d40;}.cls-3{fill:#fffef2;}.cls-4{fill:#c83927;}.cls-5{fill:#fdb525;}.cls-6{clip-path:url(#clip-path);}</style><clipPath id="clip-path"><path class="cls-1" d="M198.63,133.1c0,4.81-28.78,8.7-64.27,8.7s-64.27-3.89-64.27-8.7c0,0-15.15-84.89,64.27-84.89C210.36,48.21,198.63,133.1,198.63,133.1Z"/></clipPath></defs><circle class="cls-2" cx="134.84" cy="134.84" r="134.84"/><circle class="cls-3" cx="134.84" cy="134.84" r="90.27"/><path class="cls-4" d="M198.63,133.1c0,4.81,5.35,72-64.27,72-71,0-64.27-67.15-64.27-72"/><path class="cls-5" d="M198.63,133.1c0,4.81,5.35,72-64.27,72-71,0-64.27-67.15-64.27-72"/><ellipse cx="134.36" cy="133.1" rx="64.27" ry="8.7"/><g class="cls-6"><path class="cls-4" d="M134.11,71.39a14.17,14.17,0,1,0,14.16,14.17A14.18,14.18,0,0,0,134.11,71.39Z"/><path class="cls-4" d="M134.11,59.27a28,28,0,0,0-28,28c0,15.47,28,47.56,28,47.56s28-32.09,28-47.56A28,28,0,0,0,134.11,59.27Zm0,43.59a17.31,17.31,0,1,1,17.31-17.3A17.33,17.33,0,0,1,134.11,102.86Z"/></g><path class="cls-3" d="M127.22,166.07H129l6,5.43,5.95-5.43h1.74v11.1l-3.87,3.55V173.2l-3.82,3.49-3.85-3.47v7.5h-3.87Z"/><path class="cls-3" d="M134.3,193.26a19.87,19.87,0,1,1,19.86-19.81A19.79,19.79,0,0,1,134.3,193.26Zm0-35.72a15.85,15.85,0,1,0,15.85,15.85A15.82,15.82,0,0,0,134.28,157.54Z"/><path class="cls-3" d="M63,211.08l3.73,3.17a6.6,6.6,0,0,1-8.55,10.06l-3.73-3.17Zm-2.6,10.64a3.12,3.12,0,1,0,4-4.76l-1.11-1-4,4.76Z"/><path class="cls-3" d="M79.62,223.72l3,1.78L75.8,236.82l-3-1.78Z"/><path class="cls-3" d="M91.44,230.19l5.18,2.05a4.84,4.84,0,0,1,0,9l.84,5.48-3.72-1.46-.61-4-2-.79-1.28,3.25-3.23-1.27Zm2.76,8.3a1.88,1.88,0,0,0,2.46-1.05A1.9,1.9,0,0,0,95.59,235l-2-.79L92.2,237.7Z"/><path class="cls-3" d="M110.9,236.77l8,1.56-.55,2.82-4.65-.91-.41,2.11,4.11.8L116.9,246l-4.11-.8-.47,2.38,4.65.9-.54,2.79-8.05-1.57Z"/><path class="cls-3" d="M127.74,245.94a6.6,6.6,0,0,1,6.71-6.49,6.52,6.52,0,0,1,4.61,2l-2.47,2.4a3.12,3.12,0,0,0-2.2-.9,3.1,3.1,0,1,0-.1,6.2,3,3,0,0,0,2.23-.85l2.42,2.47a6.79,6.79,0,0,1-4.71,1.88A6.61,6.61,0,0,1,127.74,245.94Z"/><path class="cls-3" d="M148.6,245.34a6.59,6.59,0,0,1,10.27-6.55l-2,2.83a3.08,3.08,0,0,0-2.33-.47,3.1,3.1,0,1,0,3.1,4.85l2.84,2a6.74,6.74,0,0,1-4.27,2.73A6.6,6.6,0,0,1,148.6,245.34Z"/><path class="cls-3" d="M167.53,234.25l3.27-1.13,4.33,12.46-3.27,1.14Z"/><path class="cls-3" d="M191.65,238.06a6.6,6.6,0,1,1,2.6-8.95A6.57,6.57,0,0,1,191.65,238.06Zm-8.07-15.15,2.11-1.16-.33,3.18-1.48.81Zm3.36,6.61a3.15,3.15,0,1,0,4.28,1.24A3.14,3.14,0,0,0,186.94,229.52Z"/><path class="cls-3" d="M198.39,218.12l1.07-.92,8.79.69-4-4.74,2.64-2.25,8.56,10-1.08.93-8.8-.72,4.06,4.76L207,228.16Z"/><path class="cls-3" d="M42.33,191.66l-3.39-.95a1.37,1.37,0,0,0-.1-1.06,1.35,1.35,0,0,0-2-.53l-7.44,4.14-1.72-3.09,7.24-4a4.92,4.92,0,0,1,6.9,1.69A5.21,5.21,0,0,1,42.33,191.66Z"/><path class="cls-3" d="M36.88,181.66l-3.28-1.3a1.35,1.35,0,0,0,0-1.06,1.37,1.37,0,0,0-1.9-.74l-7.83,3.34-1.4-3.26,7.64-3.25a4.91,4.91,0,0,1,6.68,2.41A5.17,5.17,0,0,1,36.88,181.66Z"/><path class="cls-3" d="M25.32,166.19a6.75,6.75,0,0,1-8.09-5.06,6.65,6.65,0,0,1,.84-5.07l3,1.86a3.17,3.17,0,0,0-.34,2.41,3.17,3.17,0,1,0,4.78-3.44l1.85-3a6.92,6.92,0,0,1,3,4.21A6.76,6.76,0,0,1,25.32,166.19Z"/><path class="cls-3" d="M19.74,142.7l8.23-.89.31,2.92-.39,0a4.21,4.21,0,0,1,.8,2.09,4.32,4.32,0,1,1-8.25-1.29l-.39,0Zm4.53,3.07a1.57,1.57,0,0,0-1.43,1.72,1.61,1.61,0,0,0,3.2-.35A1.56,1.56,0,0,0,24.27,145.77Z"/><path class="cls-3" d="M25.44,139.05l0-2.38c.38,0,.66-.35.65-.91s-.28-.82-.68-.81-.66.33-.65.89c0,1.56-.95,3.22-2.57,3.24a2.93,2.93,0,0,1-2.75-3.16c0-1.62,1.08-3.25,2.61-3.28l0,2.36c-.31,0-.65.3-.64.89,0,.43.25.82.66.82s.66-.41.65-.93c0-1,.6-3.16,2.67-3.19,1.57,0,2.62,1.61,2.64,3.16C28.06,137.74,26.77,139,25.44,139.05Z"/><path class="cls-3" d="M22.2,124.29l-.1,1.42,6.09.42L28,129l-6.08-.42-.1,1.42-2.18-.15.1-1.42-2.48-.17.2-2.87,2.48.17.1-1.42Z"/><path class="cls-3" d="M24.42,121.52a4.3,4.3,0,0,1-3.59-5A4.24,4.24,0,0,1,25.76,113a4,4,0,0,1,.84.2l-.93,5.94a2,2,0,0,0,1.38-1.6,1.94,1.94,0,0,0-.1-1l1.95-1.42a4.59,4.59,0,0,1,.46,2.77A4.3,4.3,0,0,1,24.42,121.52Zm.13-6.12a1.85,1.85,0,0,0-1.39,1.53,2,2,0,0,0,.83,2Z"/><path class="cls-3" d="M17.49,107.4l.68-2.79,13.11,3.21-.69,2.8Z"/><path class="cls-3" d="M19.45,100l.86-2.75,12.88,4-.87,2.75Z"/><path class="cls-3" d="M24.79,93.7a1.32,1.32,0,1,1,1-2.46,1.33,1.33,0,0,1,.77,1.7A1.34,1.34,0,0,1,24.79,93.7Zm2,1,1-2.68,7.72,3-1,2.69Z"/><path class="cls-3" d="M35.32,84.44a4.63,4.63,0,0,1-1.77-1.77l-3.92-6.6,1.61-2.89L34,77.81a4.44,4.44,0,1,1,1.32,6.63Zm2.94-5.26a1.61,1.61,0,0,0-2.16.61,1.58,1.58,0,1,0,2.16-.61Z"/><path class="cls-3" d="M41.67,73.58l-.07,0,1.65-2.3a1.56,1.56,0,0,0,2.19-.38A1.57,1.57,0,0,0,42.88,69L40.31,72.6l-6-4.32,5-6.92L41.57,63l-3.3,4.61,1.47,1.06.92-1.28a4.41,4.41,0,1,1,1,6.16Z"/><path class="cls-3" d="M49.6,63l-.07-.06,1.91-2.08a1.58,1.58,0,1,0,2.11-2.34,1.56,1.56,0,0,0-2.21.1l-3,3.25-5.47-5,5.74-6.29,2.12,1.93-3.83,4.19,1.34,1.23,1.06-1.16A4.41,4.41,0,1,1,49.6,63Z"/><path class="cls-3" d="M59.44,44.56,54,49.25l-1.88-2.18L60,40.25l1.9,2.19,2.3,12L61.74,56.6Z"/><path class="cls-3" d="M71.15,37.82l6-3.72,1.49,2.42-6,3.72Z"/><path class="cls-3" d="M84,25.33,87.27,24l6.13,5.85.48-8.46,3.28-1.3L96.29,35l-1.5.6Z"/><path class="cls-3" d="M101.67,22.14a1.32,1.32,0,1,1,1.64.92A1.35,1.35,0,0,1,101.67,22.14Zm.4,2.15,2.77-.79,2.25,8-2.77.78Z"/><path class="cls-3" d="M108,17.34l2.81-.6,2.84,13.19-2.82.61Z"/><path class="cls-3" d="M115.5,15.88l2.85-.42,2,13.35-2.85.43Z"/><path class="cls-3" d="M132.52,19.51l.49,8.26-2.93.17,0-.39a4.31,4.31,0,1,1-.44-7.48l0-.39Zm-3.29,4.37a1.56,1.56,0,0,0-1.64-1.51,1.61,1.61,0,0,0,.19,3.22A1.57,1.57,0,0,0,129.23,23.88Z"/><path class="cls-3" d="M149.27,15.2l1.57.2,4.61,14.19-3.52-.44-.6-1.86-5.48-.69-1,1.65-3.5-.45Zm1.06,9-1-3.11-1.75,2.77Z"/><path class="cls-3" d="M158.56,26.08a4.26,4.26,0,0,1,7.18-1.88l1.44-5.48,2.79.73-3.45,13.07-2.79-.74.13-.49a3.76,3.76,0,0,1-2.24.12A4.32,4.32,0,0,1,158.56,26.08Zm5.73,1.57a1.61,1.61,0,1,0-2,1.15A1.63,1.63,0,0,0,164.29,27.65Z"/><path class="cls-3" d="M171,29.63a4.32,4.32,0,0,1,5.61-2.46A4.26,4.26,0,0,1,179,32.74a4,4,0,0,1-.38.78L173,31.35A2,2,0,0,0,174.31,33a1.76,1.76,0,0,0,1,.11l1,2.21a4.56,4.56,0,0,1-2.8-.13A4.31,4.31,0,0,1,171,29.63Zm6,1.42a1.86,1.86,0,0,0-1.21-1.68,2,2,0,0,0-2.1.4Z"/><path class="cls-3" d="M186.23,25.83l2.59,1.26-5.9,12.13L180.33,38Z"/><path class="cls-3" d="M190.46,33.83l2.5,1.43-4.09,7.2L186.36,41ZM191.71,32a1.32,1.32,0,0,1,1.81-.5,1.33,1.33,0,1,1-1.81.5Z"/><path class="cls-3" d="M196.8,37.54l2.37,1.63,0,0a3.72,3.72,0,0,1,1.22.54,4,4,0,0,1,1,5.49L198.78,49l-2.22-1.53,2.54-3.71a1.2,1.2,0,0,0-.22-1.71,1.29,1.29,0,0,0-1.85.28L194.48,46l-2.37-1.63Z"/><path class="cls-3" d="M213.7,50.64l-5.42,6.26L206.06,55l.26-.3a4.21,4.21,0,0,1-2-1A4.32,4.32,0,1,1,210,47.17,4.2,4.2,0,0,1,211.22,49l.26-.3Zm-5.42.84a1.56,1.56,0,0,0-.12-2.23,1.61,1.61,0,0,0-2.11,2.44A1.56,1.56,0,0,0,208.28,51.48Z"/><path class="cls-3" d="M221.43,57.59,226,63l-2.18,1.83-4.55-5.43Z"/><path class="cls-3" d="M236.27,69.59l3,5.13a4.07,4.07,0,0,1-1.43,5.48,4,4,0,0,1-2.54.49A3.93,3.93,0,0,1,228,82.17l-3.38-5.74Zm-6.12,10.47a1.16,1.16,0,0,0,1.6.41,1.19,1.19,0,0,0,.42-1.6L231,76.82l-2,1.19Zm4.24-3.27a1.17,1.17,0,1,0,2-1.18l-.87-1.48-2,1.19Z"/><path class="cls-3" d="M234.73,86.68l4.12-1.8,1.09,2.47-4.13,1.81a1.19,1.19,0,0,0-.71,1.56,1.29,1.29,0,0,0,1.72.75L241,89.66l1.15,2.64-7.59,3.32L233.36,93l0,0a3.85,3.85,0,0,1,1.32-6.28Z"/><path class="cls-3" d="M239.56,97.32a4.32,4.32,0,0,1,5.43,2.84,4.26,4.26,0,0,1-2.83,5.38,4.17,4.17,0,0,1-.85.19L239.5,100a2,2,0,0,0-.52,2,1.84,1.84,0,0,0,.53.84L238.39,105a4.62,4.62,0,0,1-1.64-2.27A4.29,4.29,0,0,1,239.56,97.32Zm2.62,5.53a1.84,1.84,0,0,0,.56-2,2,2,0,0,0-1.63-1.4Z"/><path class="cls-3" d="M247.05,108l.56,2.82h-.05a3.67,3.67,0,0,1,.51,1.24,3.94,3.94,0,0,1-3.13,4.61l-4.41.89L240,115l4.41-.88a1.2,1.2,0,0,0,1-1.39,1.28,1.28,0,0,0-1.52-1.08l-4.41.88-.57-2.82Z"/><path class="cls-3" d="M245.1,120.19a4.34,4.34,0,1,1-3.91,4.71A4.33,4.33,0,0,1,245.1,120.19Zm.54,5.91a1.61,1.61,0,0,0-.29-3.21,1.63,1.63,0,0,0-1.47,1.78A1.61,1.61,0,0,0,245.64,126.1Z"/><path class="cls-3" d="M244.35,131.66l0,2.38c-.38,0-.67.33-.68.88s.26.84.65.84.67-.31.68-.87c0-1.56,1.06-3.19,2.68-3.16s2.67,1.65,2.65,3.25-1.19,3.22-2.72,3.19l0-2.35c.31,0,.65-.28.66-.88,0-.43-.22-.83-.63-.83s-.67.38-.68.9c0,1-.7,3.14-2.77,3.11-1.57,0-2.56-1.7-2.54-3.25C241.68,132.88,243,131.64,244.35,131.66Z"/><path class="cls-3" d="M253.73,154.54l-.26,1.56-14.38,4,.59-3.49,1.88-.52.94-5.45-1.61-1.09.6-3.48Zm-9,.67,3.16-.85-2.69-1.87Z"/><path class="cls-3" d="M246.16,164.9l-.79,2.77-8-2.25.78-2.77Zm2,.78a1.32,1.32,0,1,1-1.64.92A1.35,1.35,0,0,1,248.2,165.68Z"/><path class="cls-3" d="M244.06,171.92l-1,2.7-.11-.05a4.52,4.52,0,0,1-.29,1.64,4.19,4.19,0,0,1-2.26,2.39l-1.09-2.46a1.66,1.66,0,0,0,.85-.95,1.55,1.55,0,0,0-1-2l-3.9-1.44,1-2.7Z"/><path class="cls-3" d="M236.76,179.41a4.31,4.31,0,1,1-3.76,7.76,5,5,0,0,1-.74-.44l2.62-5.41a2,2,0,0,0-1.79,1.13,1.86,1.86,0,0,0-.19,1l-2.29.79a4.65,4.65,0,0,1,.37-2.78A4.3,4.3,0,0,1,236.76,179.41Zm-1.9,5.82a1.88,1.88,0,0,0,1.78-1.06,2,2,0,0,0-.23-2.13Z"/><path class="cls-3" d="M230.23,188.66l-1.23,2c-.33-.19-.75-.05-1,.43s-.2.85.14,1,.74.07,1-.41c.81-1.34,2.52-2.22,3.9-1.38s1.48,2.77.65,4.14-2.64,2.18-4,1.39l1.22-2c.26.15.7.09,1-.42a.74.74,0,0,0-.13-1c-.33-.2-.77,0-1,.44-.53.88-2.19,2.36-4,1.29-1.34-.81-1.36-2.76-.55-4.08C227.31,188.37,229.09,188,230.23,188.66Z"/><circle class="cls-3" cx="50.6" cy="208.96" r="2.39"/><circle class="cls-3" cx="219.88" cy="209.24" r="2.39"/></svg>