<?xml version="1.0" encoding="utf-8"?>
<!-- Generator: Adobe Illustrator 25.4.1, SVG Export Plug-In . SVG Version: 6.00 Build 0)  -->
<svg version="1.1" id="Layer_1" xmlns="http://www.w3.org/2000/svg" xmlns:xlink="http://www.w3.org/1999/xlink" x="0px" y="0px"
	 viewBox="0 0 85.6 82.7" style="enable-background:new 0 0 85.6 82.7;" xml:space="preserve">
<style type="text/css">
	.st0{fill:#FFFCF0;}
</style>
<g>
	<g>
		<path class="st0" d="M56.5,48.5l-4.9-3.9l-1.6,1.6c-1.2,1.2-3,1.6-4.5,0.7c-1.9-1-3.6-2.3-5-3.7c-1.4-1.4-2.8-3.1-3.7-5
			c-0.8-1.6-0.5-3.5,0.7-4.7l1.6-1.5L35,27c0-0.1,0-0.1-0.1-0.1s-0.1,0-0.1,0l-4.7,4.7c-1.2,1.2-1.5,3-0.7,4.4
			c2.1,3.9,4.5,7.3,7.7,10.5c3.1,3.1,6.6,5.7,10.5,7.7c1.5,0.7,3.2,0.5,4.4-0.7l4.7-4.7c0,0,0-0.1,0-0.2S56.5,48.5,56.5,48.5z"/>
	</g>
	<g>
		<path class="st0" d="M73.3,32.9c-2.9-11-11.7-19.9-22.9-22.7S27,11,19.4,19.6c-9.5,10.5-10.7,26.5-3,38.5c-0.7,4.4-1.2,8.7-1.7,13
			c-0.2,1.6,1.6,2.6,3,2.3c4.2-1.2,8.6-2.3,12.8-3.5c11.5,4.7,24.6,2.6,33.8-5.9C72.7,56.2,76.2,43.9,73.3,32.9z M60,52.3l-4.7,4.6
			c-1.6,1.6-3.9,2.6-6,2.6c-1.3,0-2.6-0.2-4-1c-4.2-2.3-8.2-5.2-11.5-8.6c-3.4-3.4-6.3-7.2-8.6-11.5c-1.6-3.4-1.1-7.4,1.6-10.1
			l4.7-4.7c1-1,2.4-1.6,3.9-1.5c1.5,0,2.8,0.7,3.6,1.9l4.2,5.5c1.2,1.6,1.1,4-0.3,5.4l-1.6,1.6c0.7,1.2,1.6,2.4,2.6,3.4
			c1.1,1,2.1,1.8,3.4,2.6l1.6-1.6c1.5-1.5,3.7-1.6,5.4-0.3l5.4,4.2c1.2,0.8,1.9,2.1,1.9,3.6C61.6,49.8,60.9,51.3,60,52.3z"/>
	</g>
	<g>
		<path class="st0" d="M56.6,48.9l-4.7,4.7c-1.2,1.2-3,1.5-4.4,0.7c-3.9-2.1-7.3-4.5-10.5-7.7c-3.1-3.1-5.7-6.6-7.7-10.5
			c-0.7-1.5-0.5-3.2,0.7-4.4l4.7-4.7c0,0,0,0,0.1,0s0.1,0,0.1,0.1l3.9,5l-1.6,1.5c-1.2,1.2-1.6,3.1-0.7,4.7c1,1.9,2.3,3.6,3.7,5
			c1.5,1.5,3.1,2.8,5,3.7c1.6,0.8,3.4,0.5,4.5-0.7l1.6-1.6l4.9,3.9c0,0,0.1,0,0.1,0.1C56.6,48.7,56.6,48.9,56.6,48.9z"/>
		<path class="st0" d="M49.2,56.8c-0.9,0-1.8-0.2-2.6-0.7c-4.2-2.2-7.7-4.9-11-8.1c-3.3-3.2-5.9-6.8-8.1-11
			c-1.2-2.3-0.7-5.1,1.1-6.9l4.7-4.7c0.4-0.4,0.9-0.7,1.5-0.7h0.1c0.9,0,1.6,0.5,2.1,1.2l3.6,4.8c0.7,0.9,0.6,2.1-0.2,2.8L38.7,35
			c-0.6,0.6-0.7,1.5-0.3,2.1c0.8,1.6,1.9,3.1,3.4,4.5c1.4,1.4,3,2.6,4.5,3.3c0.9,0.5,1.6,0.2,2.1-0.3L50,43c0.7-0.7,2-0.8,2.8-0.2
			l4.7,3.7c0.7,0.4,1.2,1.1,1.2,2v0.2c0,0.6-0.2,1.1-0.7,1.5l-4.6,4.8C52.3,56.2,50.7,56.8,49.2,56.8z M34.6,30.1l-3,3
			c-0.5,0.5-0.7,1.3-0.3,2c2,3.7,4.4,7,7.3,9.9c2.9,2.9,6.2,5.4,10,7.3c0.7,0.3,1.4,0.2,2-0.3l3.1-3.1l-1.8-1.4l-0.3,0.3
			c-1.9,1.9-4.7,2.3-7.1,1.1c-1.9-1-3.8-2.3-5.5-4.1c-1.7-1.7-3.1-3.6-4.1-5.6c-1.2-2.3-0.7-5.2,1.2-7.1L36,32l0.2-0.2L34.6,30.1z
			 M56.5,50.6L56.5,50.6L56.5,50.6z M56.6,48.9L56.6,48.9L56.6,48.9z"/>
	</g>
</g>
</svg>
