<svg id="Layer_1" data-name="Layer 1" xmlns="http://www.w3.org/2000/svg" viewBox="0 0 85.64 82.71"><defs><style>.cls-1{fill:#fffef2;}</style></defs><path class="cls-1" d="M15.49,15.14h0A8.13,8.13,0,0,0,11,16.53l.14.12a8.39,8.39,0,0,1,4.77-1.51Z"/><path class="cls-1" d="M72.06,15.48a8.81,8.81,0,0,1,2.55,1.22l.06-.05A8.18,8.18,0,0,0,72.06,15.48Z"/><path class="cls-1" d="M70.15,15.24l-54.27-.1a8.39,8.39,0,0,0-4.77,1.51L42.78,43,74.61,16.7a8.81,8.81,0,0,0-2.55-1.22A7.57,7.57,0,0,0,70.15,15.24Z"/><path class="cls-1" d="M76.66,20,44.77,46.34l-2,1.65-2-1.66L9,19.87l-.58-.49a12.59,12.59,0,0,0-2.11,7.08V56.25c0,6.25,4.3,11.32,9.61,11.32H69.75c5.31,0,9.61-5.07,9.61-11.32V26.46a12.66,12.66,0,0,0-2.06-7Z"/></svg>