<?xml version="1.0" encoding="utf-8"?>
<!-- Generator: Adobe Illustrator 25.4.1, SVG Export Plug-In . SVG Version: 6.00 Build 0)  -->
<svg version="1.1" id="Layer_1" xmlns="http://www.w3.org/2000/svg" xmlns:xlink="http://www.w3.org/1999/xlink" x="0px" y="0px"
	 viewBox="0 0 269.68 269.68" style="enable-background:new 0 0 269.68 269.68;" xml:space="preserve">
<style type="text/css">
	.st0{fill:#434244;}
	.st1{fill:#FFFFFF;}
	.st2{fill:#FDB525;}
	.st3{fill:#645FAA;}
	.st4{fill:#00AE6F;}
	.st5{fill:none;}
	.st6{fill:#1A1A1A;}
	.st7{fill:#C83927;}
	.st8{fill:#FFFEF2;}
	.st9{fill:#3E3D40;}
	.st10{fill:#0077C0;}
	.st11{clip-path:url(#SVGID_00000092441675434366683980000007853024780234168255_);}
	.st12{fill:#FBBE9F;}
	
		.st13{clip-path:url(#SVGID_00000180338762523903061620000002258254116460235448_);fill-rule:evenodd;clip-rule:evenodd;fill:#00AE6F;}
	.st14{clip-path:url(#SVGID_00000042708520120310403390000001968596291041537982_);}
	.st15{fill:#645FA9;}
	.st16{fill:#C73927;}
	.st17{clip-path:url(#SVGID_00000093880885233210312830000017416696074356477090_);}
	
		.st18{clip-path:url(#SVGID_00000149357493277583773440000008493387666783974823_);fill-rule:evenodd;clip-rule:evenodd;fill:#00AE6F;}
	.st19{clip-path:url(#SVGID_00000033344881515938707160000001295552249653998756_);}
	.st20{clip-path:url(#SVGID_00000081611995856127964640000015384732652270127546_);}
	.st21{clip-path:url(#SVGID_00000156587114849291031270000004389754090239923086_);}
	.st22{clip-path:url(#SVGID_00000114055192743433648650000002266055587927959443_);}
	.st23{clip-path:url(#SVGID_00000052070137770535152210000004605751245884888244_);}
	
		.st24{clip-path:url(#SVGID_00000179612940787486660470000012322780968887206799_);fill-rule:evenodd;clip-rule:evenodd;fill:#00AE6F;}
	.st25{clip-path:url(#SVGID_00000074430202077866137020000005398582962513722283_);}
	.st26{fill:#53AC72;}
	.st27{fill:#F1F8FD;}
	.st28{fill:#010201;}
	.st29{fill:#9DCFD7;}
	.st30{fill:#625FA5;}
	.st31{fill:#EBBC9F;}
	.st32{fill:#9FD0D8;}
	.st33{fill:#1A77BD;}
	.st34{fill:#EAB338;}
	.st35{fill:#AC3B2C;}
	.st36{fill:#424243;}
	.st37{fill-rule:evenodd;clip-rule:evenodd;fill:#FFFEF2;}
</style>
<g>
	<g>
		<g>
			<g>
				<circle class="st9" cx="134.84" cy="134.84" r="134.84"/>
				<circle class="st8" cx="134.84" cy="134.84" r="90.27"/>
				<g>
					<g>
						<path class="st7" d="M198.63,133.1c0,4.81,5.36,71.96-64.27,71.96c-70.96,0-64.27-67.15-64.27-71.96"/>
						<path class="st3" d="M198.63,133.1c0,4.81,5.36,71.96-64.27,71.96c-70.96,0-64.27-67.15-64.27-71.96"/>
						<ellipse cx="134.36" cy="133.1" rx="64.27" ry="8.7"/>
						<g>
							<defs>
								<path id="SVGID_00000116939872011918636940000018149366582563829948_" d="M198.63,133.1c0,4.81-28.77,8.7-64.27,8.7
									s-64.27-3.9-64.27-8.7c0,0-15.15-84.89,64.27-84.89C210.36,48.21,198.63,133.1,198.63,133.1z"/>
							</defs>
							<clipPath id="SVGID_00000174564782006187352910000017640537088414219689_">
								<use xlink:href="#SVGID_00000116939872011918636940000018149366582563829948_"  style="overflow:visible;"/>
							</clipPath>
							<g style="clip-path:url(#SVGID_00000174564782006187352910000017640537088414219689_);">
								<g>
									<path class="st4" d="M155.87,115.24l-7-5.46l-2.39,2.39c-1.71,1.71-4.27,2.22-6.49,1.02c-2.73-1.37-5.12-3.24-7.17-5.29
										c-2.05-2.05-3.93-4.44-5.29-7.17c-1.2-2.22-0.68-4.95,1.02-6.66l2.22-2.05l-5.46-7.17c0-0.17,0-0.17-0.17-0.17
										c-0.17,0-0.17,0-0.17,0l-6.66,6.66c-1.71,1.71-2.05,4.27-1.02,6.32c2.9,5.46,6.49,10.41,10.93,14.85
										c4.44,4.44,9.39,8.02,14.85,10.93c2.05,1.02,4.61,0.68,6.32-1.02l6.66-6.66c0,0,0-0.17,0-0.34S155.87,115.24,155.87,115.24
										z"/>
								</g>
								<g>
									<path class="st4" d="M179.78,93.05c-4.1-15.71-16.73-28.34-32.61-32.27s-33.12,1.2-44.05,13.49
										c-13.49,15.02-15.2,37.56-4.27,54.63c-0.85,6.15-1.54,12.29-2.39,18.44c-0.34,2.22,2.39,3.76,4.27,3.24
										c5.98-1.71,12.12-3.24,18.1-4.95c16.22,6.66,35,3.59,47.98-8.37C178.92,126.17,183.87,108.75,179.78,93.05z M160.83,120.53
										l-6.66,6.66c-2.22,2.39-5.46,3.59-8.54,3.59c-1.88,0-3.76-0.34-5.63-1.37c-5.98-3.24-11.61-7.34-16.39-12.12
										c-4.78-4.78-8.88-10.24-12.12-16.39c-2.39-4.78-1.54-10.59,2.22-14.34l6.66-6.66c1.37-1.37,3.41-2.22,5.46-2.05
										c2.05,0,3.93,1.02,5.12,2.73l5.98,7.85c1.71,2.39,1.54,5.63-0.51,7.68l-2.22,2.22c1.02,1.71,2.22,3.41,3.59,4.78
										c1.54,1.37,3.07,2.56,4.78,3.59l2.22-2.22c2.05-2.05,5.29-2.39,7.68-0.51l7.68,5.98c1.71,1.2,2.73,3.07,2.73,5.12
										C163.05,117.12,162.19,119.17,160.83,120.53z"/>
								</g>
								<g>
									<path class="st4" d="M156.05,115.75l-6.66,6.66c-1.71,1.71-4.27,2.05-6.32,1.02c-5.46-2.9-10.41-6.49-14.85-10.93
										c-4.44-4.44-8.02-9.39-10.93-14.85c-1.02-2.05-0.68-4.61,1.02-6.32l6.66-6.66c0,0,0,0,0.17,0c0.17,0,0.17,0,0.17,0.17
										l5.46,7.17l-2.22,2.05c-1.71,1.71-2.22,4.44-1.02,6.66c1.37,2.73,3.24,5.12,5.29,7.17c2.05,2.05,4.44,3.93,7.17,5.29
										c2.22,1.2,4.78,0.68,6.49-1.02l2.39-2.39l7,5.46c0,0,0.17,0,0.17,0.17S156.05,115.75,156.05,115.75z"/>
									<path class="st4" d="M145.52,127.02c-1.29,0-2.58-0.29-3.79-0.9c-5.97-3.17-11.06-6.92-15.63-11.49s-8.32-9.66-11.46-15.57
										c-1.67-3.33-1.03-7.26,1.55-9.85l6.66-6.66c0.56-0.56,1.33-0.88,2.12-0.88h0.17c1.33,0,2.39,0.7,2.88,1.78l5.14,6.74
										c0.94,1.23,0.79,2.97-0.35,4.02l-2.17,2c-0.79,0.82-0.99,2.11-0.47,3.08c1.14,2.29,2.74,4.44,4.77,6.47
										c2.04,2.04,4.19,3.63,6.39,4.73c1.25,0.67,2.37,0.19,3.02-0.46l2.39-2.39c1.07-1.07,2.77-1.18,3.97-0.24l6.71,5.24
										c0.96,0.54,1.62,1.58,1.62,2.76v0.34c0,0.8-0.32,1.56-0.88,2.12l-6.66,6.66C149.88,126.16,147.71,127.02,145.52,127.02z
										 M124.79,89.11l-4.35,4.35c-0.75,0.75-0.94,1.9-0.46,2.85c2.82,5.3,6.22,9.93,10.36,14.07c4.15,4.15,8.77,7.55,14.14,10.4
										c0.89,0.44,2.04,0.26,2.79-0.5l4.47-4.47l-2.62-2.04l-0.51,0.51c-2.7,2.7-6.73,3.32-10.03,1.54
										c-2.7-1.35-5.38-3.32-7.87-5.81c-2.49-2.49-4.46-5.17-5.85-7.95c-1.74-3.23-1.11-7.43,1.59-10.12
										c0.03-0.03,0.06-0.06,0.09-0.08l0.21-0.2L124.79,89.11z M155.87,118.24L155.87,118.24L155.87,118.24z M156.05,115.75
										L156.05,115.75L156.05,115.75z"/>
								</g>
							</g>
						</g>
					</g>
					<g>
						<path class="st8" d="M127.22,166.07h1.74l5.98,5.43l5.96-5.43h1.74v11.1l-3.87,3.55v-7.52l-3.83,3.5l-3.85-3.48v7.5h-3.87
							V166.07z"/>
						<path class="st8" d="M134.3,193.26c-10.97,0-19.81-8.85-19.81-19.81c0-10.97,8.85-19.92,19.81-19.92
							c10.97,0,19.87,8.95,19.87,19.92C154.16,184.41,145.26,193.26,134.3,193.26z M134.28,157.54c-8.68,0-15.76,7.08-15.76,15.85
							c0,8.68,7.08,15.85,15.76,15.85c8.77,0,15.85-7.17,15.85-15.85C150.13,164.63,143.05,157.54,134.28,157.54z"/>
					</g>
				</g>
			</g>
			<g>
				<path class="st8" d="M27.19,103.54l-0.82,2.7l-2.72-0.83l0.82-2.7l-2.72-0.83l0.83-2.74l2.72,0.83l0.82-2.7l2.72,0.83l-0.82,2.7
					l2.7,0.82l-0.83,2.74L27.19,103.54z"/>
				<path class="st8" d="M33.86,87.52l-0.08-0.04l1.3-2.51c0.78,0.41,1.71,0.1,2.12-0.69c0.4-0.77,0.1-1.71-0.69-2.12
					c-0.77-0.4-1.71-0.1-2.11,0.67l-2.03,3.92l-6.58-3.41l3.92-7.56l2.54,1.32l-2.61,5.03l1.61,0.84l0.72-1.39
					c1.12-2.16,3.79-3,5.94-1.88c2.16,1.12,3,3.79,1.88,5.94C38.69,87.79,36.02,88.63,33.86,87.52z"/>
				<path class="st8" d="M48.72,66.63l-3.82,4.85l-2.26-1.78l-2.73-9.07l2.22-2.82l6.11,4.81l1.54-1.95l2.25,1.77l-1.54,1.95
					l2.25,1.77l-1.76,2.23L48.72,66.63z M46.47,64.85l-3.03-2.38l1.36,4.51L46.47,64.85z"/>
				<path class="st8" d="M71.98,42.46c-1.91,0.9-4.28,0.28-5.51-1.55c-1.36-2.02-0.82-4.76,1.2-6.12s4.76-0.82,6.12,1.2
					c0.46,0.69,0.7,1.46,0.74,2.23l0.55,7.85l-2.72,1.83L71.98,42.46z M71.48,37.61c-0.49-0.73-1.47-0.92-2.2-0.43
					c-0.75,0.5-0.92,1.47-0.43,2.2c0.5,0.75,1.45,0.93,2.2,0.43C71.78,39.32,71.98,38.36,71.48,37.61z"/>
				<path class="st8" d="M97.36,20.28l3.38-1.05l4,12.89l-3.38,1.05L97.36,20.28z"/>
				<path class="st8" d="M113.95,16.14l3.5-0.56l2.13,13.33l-3.5,0.56L113.95,16.14z"/>
				<path class="st8" d="M131.03,23.37l0-0.09l2.82,0.05c-0.01,0.88,0.68,1.58,1.56,1.59c0.86,0.01,1.58-0.68,1.59-1.56
					c0.01-0.86-0.68-1.58-1.54-1.59l-4.41-0.07l0.12-7.41l8.51,0.14l-0.05,2.86l-5.67-0.09l-0.03,1.82l1.57,0.03
					c2.43,0.04,4.38,2.05,4.34,4.48s-2.05,4.38-4.48,4.34C132.94,27.81,130.99,25.8,131.03,23.37z"/>
				<path class="st8" d="M151.29,24.52c0.16-0.87,0.56-1.62,1.12-2.24l5.02-5.81l3.25,0.62l-3.52,4.08
					c2.01,0.73,3.27,2.85,2.86,5.01c-0.46,2.41-2.79,4-5.19,3.54C152.43,29.26,150.83,26.92,151.29,24.52z M157.21,25.64
					c0.16-0.85-0.41-1.69-1.26-1.85c-0.87-0.16-1.69,0.41-1.85,1.26c-0.16,0.87,0.4,1.69,1.26,1.85
					C156.21,27.06,157.05,26.5,157.21,25.64z"/>
				<path class="st8" d="M174.63,30.41c-1.83-1.06-2.68-3.36-1.88-5.4c0.88-2.27,3.44-3.4,5.71-2.52c2.27,0.88,3.4,3.44,2.52,5.71
					c-0.3,0.77-0.8,1.41-1.41,1.89l-6.13,4.94l-3.06-1.19L174.63,30.41z M178.32,27.22c0.32-0.82-0.08-1.73-0.9-2.05
					c-0.84-0.33-1.73,0.08-2.05,0.9c-0.33,0.84,0.06,1.72,0.9,2.05C177.09,28.44,178,28.06,178.32,27.22z"/>
				<path class="st8" d="M189.83,37.83l2.47-3.97c1.28-2.06,4-2.71,6.08-1.42c2.06,1.28,2.72,4.02,1.42,6.1l-2.46,3.96
					c-1.29,2.08-4.01,2.7-6.09,1.41S188.53,39.91,189.83,37.83z M194.93,40.98l2.44-3.93c0.47-0.75,0.24-1.72-0.51-2.18
					s-1.72-0.24-2.17,0.49l-2.45,3.94c-0.47,0.75-0.24,1.72,0.51,2.18S194.46,41.73,194.93,40.98z"/>
				<path class="st8" d="M209.73,51.93c-1.32-1.65-1.28-4.09,0.21-5.71c1.64-1.79,4.44-1.92,6.23-0.28s1.92,4.44,0.28,6.23
					c-0.56,0.61-1.25,1.02-2,1.25l-7.5,2.38l-2.42-2.21L209.73,51.93z M214.32,50.3c0.6-0.65,0.55-1.64-0.1-2.24
					c-0.66-0.61-1.64-0.55-2.24,0.1c-0.61,0.66-0.56,1.63,0.1,2.24C212.73,50.99,213.71,50.96,214.32,50.3z"/>
				<path class="st8" d="M226.93,66.43l0.4,0.02l0.75-0.14l0.32-0.24c0.55-0.41,0.85-1.45,0.27-2.21c-0.52-0.69-1.5-0.83-2.22-0.29
					l-1.74-2.31c1.84-1.39,4.63-1.24,6.3,0.97c1.58,2.1,0.79,4.88-0.96,6.2c-1.12,0.84-2.47,0.85-2.47,0.85l-4.47,0.14l2.3,3.05
					l-2.29,1.72l-5.62-7.46L226.93,66.43z"/>
				<path class="st8" d="M232.57,81.14l4.19-2.09c2.17-1.09,4.82-0.22,5.91,1.97c1.08,2.17,0.21,4.84-1.98,5.94l-4.17,2.08
					c-2.19,1.09-4.83,0.2-5.92-1.99C229.5,84.87,230.38,82.24,232.57,81.14z M235.26,86.5l4.14-2.07c0.79-0.39,1.1-1.33,0.71-2.12
					c-0.39-0.79-1.34-1.1-2.11-0.72l-4.15,2.07c-0.79,0.39-1.1,1.34-0.71,2.12C233.53,86.58,234.47,86.89,235.26,86.5z"/>
				<path class="st8" d="M240.8,100.08l0.09-0.02l0.77,2.72c-0.85,0.24-1.32,1.1-1.07,1.95c0.24,0.83,1.1,1.31,1.95,1.07
					c0.83-0.24,1.32-1.1,1.08-1.93l-1.2-4.24l7.13-2.02l2.32,8.19l-2.75,0.78l-1.55-5.46l-1.75,0.5l0.43,1.51
					c0.66,2.34-0.7,4.78-3.04,5.45s-4.78-0.7-5.45-3.04S238.46,100.74,240.8,100.08z"/>
			</g>
			<g>
				<path class="st8" d="M62.04,209.95l2.73,2.22l-2.96,7.72l3.45-2.21l2.72,2.21l-1.44,3.81l6.94-4.47l2.73,2.22l-11.69,7.5
					l-2.72-2.21l1.48-3.83l-3.47,2.21l-2.72-2.21L62.04,209.95z"/>
				<path class="st8" d="M84.02,225.98l3.11,1.53l-2.07,4.22l3.76,1.84l2.07-4.22l3.11,1.53l-5.81,11.84l-3.11-1.53l2.22-4.52
					l-3.76-1.84l-2.22,4.52l-3.11-1.53L84.02,225.98z"/>
				<path class="st8" d="M108.65,235.73l1.5,0.38l2.81,14.31l-3.36-0.84l-0.36-1.87l-5.24-1.32l-1.19,1.48l-3.34-0.84L108.65,235.73
					z M108.63,244.54l-0.59-3.14l-2.02,2.48L108.63,244.54z"/>
				<path class="st8" d="M127.25,242.25l-3.42-0.19l0.19-3.44l10.38,0.57l-0.19,3.44l-3.5-0.19l-0.53,9.75l-3.46-0.19L127.25,242.25
					z"/>
				<path class="st8" d="M144.58,247.95l3.49-0.44c0.07,0.56,0.63,0.95,1.4,0.85c0.7-0.09,1.19-0.56,1.11-1.17
					c-0.08-0.65-0.72-0.95-1.4-0.87c-2.53,0.32-4.94-1.2-5.22-3.43s1.46-4.28,4.24-4.63c2.62-0.33,4.96,1.18,5.24,3.42l-3.47,0.44
					c-0.07-0.54-0.67-0.94-1.38-0.85c-0.75,0.09-1.21,0.56-1.13,1.17c0.08,0.61,0.64,0.97,1.39,0.87c2.67-0.34,4.96,1.22,5.24,3.43
					c0.28,2.23-1.55,4.28-4.17,4.61C147.04,251.7,144.85,250.08,144.58,247.95z"/>
				<path class="st8" d="M167.04,234.09l1.47-0.48l10.03,10.59l-3.29,1.09l-1.31-1.38l-5.13,1.69l-0.21,1.89l-3.28,1.08
					L167.04,234.09z M171.74,241.55l-2.18-2.34l-0.38,3.18L171.74,241.55z"/>
				<path class="st8" d="M182.87,227.64l4.83-2.76c2.32-1.33,5.3-0.52,6.63,1.8c1.32,2.31,0.53,5.28-1.75,6.58l-1.88,1.08l1.74,3.04
					l-3.01,1.72L182.87,227.64z M191.07,230.67c0.92-0.53,1.24-1.66,0.71-2.58c-0.52-0.92-1.68-1.23-2.59-0.71l-1.86,1.07l1.88,3.28
					L191.07,230.67z"/>
				<path class="st8" d="M199.68,216.85l4.21-3.63c2.03-1.74,5.1-1.51,6.85,0.51c1.73,2.01,1.51,5.08-0.47,6.79l-1.64,1.41
					l2.28,2.65l-2.63,2.26L199.68,216.85z M208.3,218.28c0.8-0.69,0.9-1.87,0.21-2.67c-0.69-0.8-1.88-0.89-2.68-0.2l-1.63,1.4
					l2.47,2.87L208.3,218.28z"/>
			</g>
		</g>
		<g>
			<circle class="st8" cx="43.76" cy="202.66" r="2.39"/>
			<circle class="st8" cx="224.1" cy="202.66" r="2.39"/>
		</g>
	</g>
</g>
</svg>
