<svg id="Layer_1" data-name="Layer 1" xmlns="http://www.w3.org/2000/svg" viewBox="0 0 269.68 269.68"><defs><style>.cls-1{fill:#3e3d40;}.cls-2{fill:#fffef2;}.cls-3{fill:#c83927;}.cls-4{fill:#645faa;}</style></defs><circle class="cls-1" cx="134.84" cy="134.84" r="134.84"/><circle class="cls-2" cx="134.84" cy="134.84" r="90.27"/><path class="cls-3" d="M201.63,133.1c0,4.81,5.35,72-64.27,72-71,0-64.27-67.15-64.27-72"/><ellipse cx="137.36" cy="133.1" rx="64.27" ry="8.7"/><path class="cls-4" d="M184.87,113.36a13.19,13.19,0,0,0-4.61-4.91l-66.9-41.84a13.15,13.15,0,0,0-6.43-2l21.81,51.8Z"/><path class="cls-4" d="M176.13,140.06l8.34-13.34a13.15,13.15,0,0,0,1.93-8.48l-60.87,3.32L101.88,65.38a13.18,13.18,0,0,0-6.79,5.45l-20,31.94A13.27,13.27,0,0,0,79.32,121l32,20c8,.48,16.88.75,26.22.75C152,141.8,165.38,141.15,176.13,140.06Z"/><path class="cls-2" d="M130.22,166.07H132l6,5.43,5.95-5.43h1.74v11.1l-3.87,3.55V173.2l-3.82,3.49-3.85-3.47v7.5h-3.87Z"/><path class="cls-2" d="M137.3,193.26a19.87,19.87,0,1,1,19.86-19.81A19.79,19.79,0,0,1,137.3,193.26Zm0-35.72a15.85,15.85,0,1,0,15.85,15.85A15.82,15.82,0,0,0,137.28,157.54Z"/><path class="cls-2" d="M76.38,229.62a6.59,6.59,0,0,1,12.1,1.32l-3.3,1a3.1,3.1,0,0,0-1.53-1.82,3.1,3.1,0,1,0-.62,5.72l1,3.32a6.78,6.78,0,0,1-5-.55A6.59,6.59,0,0,1,76.38,229.62Z"/><path class="cls-2" d="M100.06,247.42a6.6,6.6,0,1,1,8.25-4.34A6.58,6.58,0,0,1,100.06,247.42Zm2.87-9.31A3.15,3.15,0,1,0,105,242,3.15,3.15,0,0,0,102.93,238.11Z"/><path class="cls-2" d="M119.92,238.53l5.53.51a4.84,4.84,0,0,1,2.51,8.67l2.35,5-4-.37-1.71-3.67-2.14-.19-.32,3.48-3.45-.31Zm5,7.18a1.89,1.89,0,1,0,.35-3.76l-2.14-.2-.34,3.77Z"/><path class="cls-2" d="M141.05,239.4l5.53-.61a4.87,4.87,0,0,1,5.35,4.3,4.81,4.81,0,0,1-1.17,3.7l3.31,4.45-4,.44-2.41-3.26-2.14.24.39,3.48-3.45.38Zm6.31,6a1.89,1.89,0,1,0-.41-3.76l-2.14.23.42,3.76Z"/><path class="cls-2" d="M162,236l7.83-2.42.85,2.74-4.53,1.4.64,2.05,4-1.24.86,2.8-4,1.23.71,2.32,4.53-1.39.83,2.7-7.83,2.42Z"/><path class="cls-2" d="M190.75,238.55a6.6,6.6,0,1,1,2.68-8.93A6.57,6.57,0,0,1,190.75,238.55ZM186.12,230a3.15,3.15,0,1,0,4.27,1.28A3.14,3.14,0,0,0,186.12,230Z"/><path class="cls-2" d="M31.46,171l-.72-2.26c.36-.12.53-.53.36-1.06s-.51-.71-.88-.59-.54.51-.37,1c.47,1.5,0,3.36-1.54,3.85s-3-.71-3.54-2.23.1-3.43,1.56-3.9l.71,2.25c-.29.09-.53.47-.35,1a.74.74,0,0,0,.87.59c.38-.12.52-.58.36-1.08-.31-1-.34-3.2,1.63-3.82,1.5-.48,3,.79,3.44,2.27C33.6,169,32.73,170.64,31.46,171Z"/><path class="cls-2" d="M25.45,155a4.34,4.34,0,1,1,3.66-4.9A4.33,4.33,0,0,1,25.45,155Zm-.84-5.88a1.61,1.61,0,1,0,1.83,1.34A1.61,1.61,0,0,0,24.61,149.16Z"/><path class="cls-2" d="M23.89,121.86l4.49.25-.15,2.71-4.49-.25a1.24,1.24,0,1,0-.14,2.48h0l4.48.25L28,130l-4.3-.23c-1-.06-1.48.38-1.52,1.16a1.3,1.3,0,0,0,1.38,1.35l4.3.24-.16,2.88L19.38,135l.16-2.88h.05a3.68,3.68,0,0,1-.16-1.36,3.91,3.91,0,0,1,1.12-2.5,4.14,4.14,0,0,1-.83-2.74A4,4,0,0,1,23.89,121.86Z"/><path class="cls-2" d="M26.2,110.93a4.33,4.33,0,1,1,5.27-3.11A4.34,4.34,0,0,1,26.2,110.93Zm1.49-5.75a1.61,1.61,0,1,0,1.17,1.94A1.6,1.6,0,0,0,27.69,105.18Z"/><path class="cls-2" d="M33.52,93.21l1-2.17c.35.16.75,0,1-.55a.72.72,0,0,0-.27-1c-.38-.16-.74,0-1,.54-.64,1.43-2.23,2.51-3.71,1.85a2.94,2.94,0,0,1-1.16-4c.66-1.48,2.36-2.5,3.76-1.88l-1,2.16c-.27-.13-.7,0-.95.54a.74.74,0,0,0,.26,1c.36.16.77-.09,1-.57.42-.94,1.88-2.61,3.77-1.77,1.43.64,1.69,2.57,1.06,4C36.45,93.14,34.74,93.75,33.52,93.21Z"/><path class="cls-2" d="M39.44,77.15A9.39,9.39,0,0,1,50.48,62a9.22,9.22,0,0,1,3.71,6.17l-5,1.78A4.32,4.32,0,0,1,42.34,73a4.29,4.29,0,0,1-.93-6,4,4,0,0,1,1.83-1.45l-.35-.25,1.47-2,5.21,3.79,1.21-.5a6.06,6.06,0,0,0-2-2.34,6.58,6.58,0,0,0-9.19,1.56,6.5,6.5,0,1,0,10.55,7.58l2.3,1.68A9.32,9.32,0,0,1,39.44,77.15Zm4-8.69A1.79,1.79,0,0,0,43.86,71a1.77,1.77,0,1,0-.42-2.49Z"/><path class="cls-2" d="M68.4,45.05l2.89,3.45L69.2,50.25,66.31,46.8a1.24,1.24,0,1,0-1.9,1.59v0l2.88,3.43L65.2,53.6l-2.76-3.3c-.62-.74-1.3-.81-1.89-.32a1.31,1.31,0,0,0,0,1.94l2.76,3.3-2.2,1.85-5.32-6.35L58,48.87l0,.05a3.39,3.39,0,0,1,.88-1.05,3.9,3.9,0,0,1,2.59-.9,4.07,4.07,0,0,1,1.43-2.47A4,4,0,0,1,68.4,45.05Z"/><path class="cls-2" d="M77.92,39.27a4.31,4.31,0,0,1,1.74-5.87,4.26,4.26,0,0,1,5.83,1.74,4.31,4.31,0,0,1,.35.79l-5.28,2.88a2,2,0,0,0,2.12.12,1.86,1.86,0,0,0,.71-.68l2.33.68a4.58,4.58,0,0,1-1.92,2A4.3,4.3,0,0,1,77.92,39.27Zm4.93-3.63a1.86,1.86,0,0,0-2.06-.17,2,2,0,0,0-1.05,1.87Z"/><path class="cls-2" d="M95.64,32.56l2.24-.79c.13.36.55.52,1.07.34s.69-.53.56-.91-.52-.52-1.05-.33c-1.48.51-3.35.1-3.89-1.43a2.94,2.94,0,0,1,2.13-3.6c1.53-.53,3.44,0,3.94,1.45l-2.22.77c-.11-.29-.49-.51-1-.32a.74.74,0,0,0-.57.89c.13.37.59.49,1.09.32,1-.34,3.18-.43,3.87,1.53.51,1.47-.71,3-2.17,3.5C97.7,34.64,96.08,33.81,95.64,32.56Z"/><path class="cls-2" d="M116.32,23.22l-1.39.27,1.13,6-2.83.54-1.13-6-1.4.26-.4-2.14,1.39-.26-.46-2.44,2.83-.53.46,2.44,1.4-.27Z"/><path class="cls-2" d="M127.74,19.77l2.88-.14.4,8.27-2.88.14Zm.1-2.18a1.32,1.32,0,1,1,2.64-.13,1.32,1.32,0,1,1-2.64.13Z"/><path class="cls-2" d="M145.91,23l-3.83-.4.3-2.88,9.29,1-4.28,4.94,3.42.36-.3,2.9-8.9-.93Z"/><path class="cls-2" d="M161.65,26.87a4.34,4.34,0,1,1,3,5.36A4.34,4.34,0,0,1,161.65,26.87Zm5.71,1.66a1.61,1.61,0,0,0-3.1-.9,1.61,1.61,0,1,0,3.1.9Z"/><path class="cls-2" d="M184.83,24.78l2.58,1.28-2.54,5.09a3.45,3.45,0,0,1,1.52.35,4.34,4.34,0,0,1,1.78,6.08L186.47,41l-2.42-1.21,1.74-3.49a1.58,1.58,0,0,0-.65-2.3,1.48,1.48,0,0,0-2,.73l-1.83,3.67-2.58-1.28Z"/><path class="cls-2" d="M197.81,43.58,200.5,40l2.16,1.62L200,45.19a1.2,1.2,0,0,0,.16,1.72A1.28,1.28,0,0,0,202,46.7l2.69-3.6L207,44.82l-5,6.63-2.31-1.72,0,0a3.76,3.76,0,0,1-1.21-.59A3.94,3.94,0,0,1,197.81,43.58Z"/><path class="cls-2" d="M222.48,65.59l-3.35,3-1.81-2,3.35-3A1.24,1.24,0,1,0,219,61.72h0l-3.34,3-1.82-2,3.21-2.87c.72-.65.77-1.32.25-1.9a1.3,1.3,0,0,0-1.93,0l-3.21,2.87-1.92-2.15,6.17-5.52,1.92,2.15,0,0a3.4,3.4,0,0,1,1.07.85,3.85,3.85,0,0,1,1,2.55,4.07,4.07,0,0,1,2.51,1.35A4,4,0,0,1,222.48,65.59Z"/><path class="cls-2" d="M235.66,86.72l-3.93,2.18-1.32-2.37,3.93-2.19a1.24,1.24,0,1,0-1.2-2.17h0l-3.91,2.17L227.88,82l3.76-2.08c.85-.47,1.05-1.12.67-1.8a1.31,1.31,0,0,0-1.89-.41l-3.76,2.09-1.4-2.52,7.24-4,1.39,2.52,0,0a3.78,3.78,0,0,1,.86,1.07,3.91,3.91,0,0,1,.39,2.7,4.17,4.17,0,0,1,2.15,1.88A4,4,0,0,1,235.66,86.72Z"/><path class="cls-2" d="M239.27,97.54l4.3-1.36.81,2.58-4.29,1.35a1.19,1.19,0,0,0-.87,1.49,1.29,1.29,0,0,0,1.63.92l4.29-1.36.86,2.75-7.89,2.49-.87-2.75h0a3.68,3.68,0,0,1-.63-1.18A3.94,3.94,0,0,1,239.27,97.54Z"/><path class="cls-2" d="M242.77,116.23l.33,2.35c-.37,0-.61.43-.53,1s.38.79.77.73.62-.41.54-1c-.22-1.56.55-3.32,2.15-3.54a2.92,2.92,0,0,1,3.12,2.79c.23,1.6-.67,3.37-2.18,3.58l-.33-2.33c.3,0,.6-.38.52-1-.06-.43-.35-.79-.76-.73s-.6.49-.53,1c.14,1-.2,3.21-2.25,3.5-1.55.22-2.8-1.27-3-2.81C240.32,117.85,241.45,116.41,242.77,116.23Z"/><path class="cls-2" d="M243.26,133.07a1.42,1.42,0,1,1,.05,2.84,1.42,1.42,0,1,1-.05-2.84Z"/><path class="cls-2" d="M248.14,156.65,240,155.43l.44-2.9.39.05a4.25,4.25,0,0,1-.25-2.22,4.32,4.32,0,1,1,8.54,1.29,4.18,4.18,0,0,1-.89,2l.39.05Zm-3.6-4.12a1.56,1.56,0,0,0,1.81-1.29,1.61,1.61,0,0,0-3.18-.48A1.55,1.55,0,0,0,244.54,152.53Z"/><path class="cls-2" d="M245.13,168.62l-.92,2.73-.12,0a4.56,4.56,0,0,1-.24,1.65,4.21,4.21,0,0,1-2.19,2.46L240.5,173a1.66,1.66,0,0,0,.82-1,1.54,1.54,0,0,0-1-2l-3.94-1.33.92-2.73Z"/><circle class="cls-2" cx="59.53" cy="221.11" r="2.39"/><circle class="cls-2" cx="210.15" cy="221.11" r="2.39"/></svg>