<svg id="Layer_1" data-name="Layer 1" xmlns="http://www.w3.org/2000/svg" xmlns:xlink="http://www.w3.org/1999/xlink" viewBox="0 0 269.68 269.68"><defs><style>.cls-1{fill:none;}.cls-2{fill:#3e3d40;}.cls-3{fill:#fffef2;}.cls-4{fill:#c83927;}.cls-5{fill:#0077c0;}.cls-6{clip-path:url(#clip-path);}.cls-7{fill:#fbbe9f;}</style><clipPath id="clip-path"><path class="cls-1" d="M198.63,133.1c0,4.81-28.78,8.7-64.27,8.7s-64.27-3.89-64.27-8.7c0,0-15.15-84.89,64.27-84.89C210.36,48.21,198.63,133.1,198.63,133.1Z"/></clipPath></defs><circle class="cls-2" cx="134.84" cy="134.84" r="134.84"/><circle class="cls-3" cx="134.84" cy="134.84" r="90.27"/><path class="cls-4" d="M198.63,133.1c0,4.81,5.35,72-64.27,72-71,0-64.27-67.15-64.27-72"/><path class="cls-5" d="M198.63,133.1c0,4.81,5.35,72-64.27,72-71,0-64.27-67.15-64.27-72"/><ellipse cx="134.36" cy="133.1" rx="64.27" ry="8.7"/><g class="cls-6"><circle class="cls-7" cx="132.99" cy="121.92" r="22.95"/><path class="cls-7" d="M170,81.36,118.71,68.94A21.77,21.77,0,0,0,92.43,85L80,136.2a21.75,21.75,0,0,0,16,26.27l51.24,12.43a21.75,21.75,0,0,0,26.27-16L186,107.64A21.77,21.77,0,0,0,170,81.36ZM126,150.57a29.48,29.48,0,1,1,35.59-21.7A29.51,29.51,0,0,1,126,150.57Z"/></g><path class="cls-3" d="M127.22,166.07H129l6,5.43,5.95-5.43h1.74v11.1l-3.87,3.55V173.2l-3.82,3.49-3.85-3.47v7.5h-3.87Z"/><path class="cls-3" d="M134.3,193.26a19.87,19.87,0,1,1,19.86-19.81A19.79,19.79,0,0,1,134.3,193.26Zm0-35.72a15.85,15.85,0,1,0,15.85,15.85A15.82,15.82,0,0,0,134.28,157.54Z"/><path class="cls-3" d="M57.71,205.53,60.09,208l-9.58,9.08-2.38-2.52Z"/><path class="cls-3" d="M67.73,215.27l1.13.85,1.26,8.73,3.74-5,2.77,2.08-7.92,10.57-1.14-.86-1.23-8.74-3.75,5-2.78-2.08Z"/><path class="cls-3" d="M80.68,235l3.16,1.54a1.15,1.15,0,0,0,.71,1.48,1.11,1.11,0,0,0,1.57-.37,1.14,1.14,0,0,0-.7-1.5c-2.29-1.11-3.48-3.7-2.5-5.73s3.57-2.79,6.09-1.56c2.37,1.15,3.5,3.69,2.51,5.72l-3.14-1.53a1.17,1.17,0,0,0-.7-1.47,1.09,1.09,0,0,0-1.58.36,1.11,1.11,0,0,0,.68,1.49c2.42,1.18,3.49,3.73,2.51,5.74s-3.63,2.73-6,1.58C80.69,239.53,79.74,237,80.68,235Z"/><path class="cls-3" d="M104.44,238.55l-3.31-.91.92-3.32,10,2.76-.92,3.32-3.38-.93-2.59,9.42-3.34-.92Z"/><path class="cls-3" d="M125.89,239.07l1.54.12,5.18,13.64-3.46-.27-.68-1.78-5.38-.42-.93,1.66-3.44-.27Zm1.46,8.69-1.11-3-1.58,2.79Z"/><path class="cls-3" d="M143,245.94a6.59,6.59,0,0,1,10.52-6.1l-2.11,2.73a3.14,3.14,0,1,0,.88,4l-2.53.33-.3-2.3,6.54-.86.06.49A6.59,6.59,0,1,1,143,245.94Z"/><path class="cls-3" d="M164.64,235.29l5.24-1.86a4.85,4.85,0,0,1,5.9,6.84l4.23,3.58-3.76,1.33-3.09-2.62-2,.71,1.16,3.3L169,247.73Zm7.52,4.45a1.89,1.89,0,1,0-1.26-3.57l-2,.71,1.26,3.57Z"/><path class="cls-3" d="M188.72,224.52l1.32-.81,12.2,8-3,1.81-1.59-1.05-4.6,2.83.22,1.88L190.37,239Zm6.29,6.17-2.66-1.77.36,3.18Z"/><path class="cls-3" d="M202.51,214.91l1.13-1.09,7.27-.22.46-7.24,1.12-1.09,9.17,9.49-2.5,2.42-4.71-4.87-.29,4.65-4.67.16,4.69,4.86-2.5,2.42Z"/><path class="cls-3" d="M29.76,97.52a9.39,9.39,0,0,1,7.77-17.09,9.21,9.21,0,0,1,4.87,5.29l-4.53,2.75a4.43,4.43,0,0,1-.35,2.29,4.32,4.32,0,0,1-7.87-3.57,4,4,0,0,1,1.51-1.79l-.4-.18,1-2.28,5.86,2.67,1.09-.73A6.13,6.13,0,0,0,36.37,83a6.58,6.58,0,0,0-8.69,3.37,6.5,6.5,0,1,0,11.86,5.31l2.59,1.18A9.32,9.32,0,0,1,29.76,97.52Zm2.18-9.31a1.8,1.8,0,0,0,3.27,1.49,1.8,1.8,0,0,0-3.27-1.49Z"/><path class="cls-3" d="M51.66,60.29l3.52,2.79L53.5,65.21,50,62.41a1.24,1.24,0,1,0-1.54,2h0L52,67.16l-1.7,2.14-3.37-2.67c-.76-.61-1.43-.54-1.91.06a1.3,1.3,0,0,0,.35,1.91l3.37,2.67L46.9,73.53l-6.49-5.15,1.79-2.25,0,0A3.54,3.54,0,0,1,42.9,65a3.86,3.86,0,0,1,2.35-1.4,4.15,4.15,0,0,1,.9-2.7A4,4,0,0,1,51.66,60.29Z"/><path class="cls-3" d="M59.87,52.69a4.32,4.32,0,0,1,.52-6.1,4.27,4.27,0,0,1,6.06.53,4.33,4.33,0,0,1,.5.71l-4.58,3.88a2,2,0,0,0,2.09-.31,2,2,0,0,0,.57-.81l2.4.2A4.52,4.52,0,0,1,66,53.19,4.31,4.31,0,0,1,59.87,52.69ZM64,48.14a1.88,1.88,0,0,0-2.06.25,2,2,0,0,0-.65,2Z"/><path class="cls-3" d="M75.87,42.55l2-1.22c.2.32.64.39,1.12.11s.57-.66.37-1-.62-.41-1.1-.12c-1.35.81-3.27.79-4.1-.6s0-3.14,1.36-4,3.36-.69,4.15.62l-2,1.21c-.15-.26-.58-.41-1.09-.1a.72.72,0,0,0-.37,1c.2.34.68.37,1.13.1.88-.53,3-1.06,4.1.71.8,1.35-.09,3.08-1.42,3.87C78.31,44.17,76.55,43.69,75.87,42.55Z"/><path class="cls-3" d="M94.23,29.22l-1.32.54,2.33,5.64-2.66,1.1-2.33-5.64-1.31.54-.83-2,1.31-.54-1-2.3,2.66-1.1,1,2.3,1.31-.54Z"/><path class="cls-3" d="M104.37,21.37a1.33,1.33,0,1,1,1.63,1A1.35,1.35,0,0,1,104.37,21.37Zm.35,2.16,2.79-.72,2.06,8-2.79.71Z"/><path class="cls-3" d="M123.15,23.06l-3.83.37L119,20.55l9.3-.9-3.22,5.7,3.43-.33.28,2.9-8.91.86Z"/><path class="cls-3" d="M139.38,23.71a4.33,4.33,0,1,1,4,4.65A4.33,4.33,0,0,1,139.38,23.71Zm5.92.47a1.61,1.61,0,1,0-1.71,1.49A1.6,1.6,0,0,0,145.3,24.18Z"/><path class="cls-3" d="M161.64,17l2.79.73L163,23.21a3.18,3.18,0,0,1,1.56,0,4.32,4.32,0,0,1,3,5.58l-1,3.69-2.61-.69,1-3.77a1.59,1.59,0,0,0-1.09-2.12A1.47,1.47,0,0,0,162,27.07l-1.05,4-2.78-.74Z"/><path class="cls-3" d="M178.17,32.76l1.92-4.07,2.44,1.15-1.92,4.07a1.21,1.21,0,0,0,.5,1.65,1.29,1.29,0,0,0,1.78-.58l1.92-4.07,2.6,1.23-3.52,7.49-2.6-1.23,0,0A3.67,3.67,0,0,1,180,38,3.94,3.94,0,0,1,178.17,32.76Z"/><path class="cls-3" d="M206.74,49.37,204.06,53l-2.18-1.63,2.68-3.6a1.24,1.24,0,1,0-2-1.49v0l-2.67,3.59-2.2-1.63,2.57-3.45c.58-.78.49-1.45-.13-1.91a1.3,1.3,0,0,0-1.89.41l-2.57,3.45L193.36,45l4.94-6.64,2.31,1.72,0,0a3.51,3.51,0,0,1,1.22.62,3.87,3.87,0,0,1,1.47,2.3,4.13,4.13,0,0,1,2.73.82A4,4,0,0,1,206.74,49.37Z"/><path class="cls-3" d="M223.9,67.41l-3.42,2.93-1.77-2.06,3.42-2.93a1.24,1.24,0,1,0-1.62-1.88h0l-3.4,2.92-1.79-2.08,3.27-2.8c.74-.63.8-1.3.3-1.89a1.3,1.3,0,0,0-1.94,0l-3.27,2.8-1.87-2.18,6.28-5.4L220,57l0,0a3.5,3.5,0,0,1,1.05.88,3.88,3.88,0,0,1,.93,2.57,4.09,4.09,0,0,1,2.48,1.4A4,4,0,0,1,223.9,67.41Z"/><path class="cls-3" d="M229.61,77.28l3.93-2.19,1.32,2.36-3.93,2.19a1.2,1.2,0,0,0-.56,1.63,1.29,1.29,0,0,0,1.79.57l3.93-2.19,1.4,2.51-7.23,4-1.4-2.52,0,0a3.71,3.71,0,0,1-.86-1A4,4,0,0,1,229.61,77.28Z"/><path class="cls-3" d="M236.82,94.88l.81,2.24c-.36.12-.52.54-.33,1.07s.54.68.91.55.52-.53.33-1c-.53-1.48-.13-3.36,1.39-3.9a2.93,2.93,0,0,1,3.62,2.1c.55,1.52,0,3.43-1.41,4l-.8-2.22c.29-.11.51-.49.31-1.05a.73.73,0,0,0-.89-.56c-.37.13-.49.6-.31,1.09.34,1,.45,3.18-1.5,3.88-1.47.53-3-.69-3.52-2.14C234.76,97,235.57,95.33,236.82,94.88Z"/><circle class="cls-3" cx="38.31" cy="189.24" r="2.39"/><circle class="cls-3" cx="231.36" cy="189.24" r="2.39"/></svg>