<svg id="Layer_1" data-name="Layer 1" xmlns="http://www.w3.org/2000/svg" viewBox="0 0 4177.89 157.32"><defs><style>.cls-1{fill:#434244;}</style></defs><path class="cls-1" d="M.49,86.24V63.38h10v22.7a4.93,4.93,0,1,0,9.86,0V63.38h10V86.24a14.9,14.9,0,1,1-29.8,0Z"/><path class="cls-1" d="M37.84,63.38h4L59.74,81.2V63.38h9.92v37.76H65.58L47.76,83.27v17.87H37.84Z"/><path class="cls-1" d="M79.47,101.14a3.94,3.94,0,0,1-4-3.88,4,4,0,1,1,8,0,10.5,10.5,0,0,1-4,8Z"/><path class="cls-1" d="M102.37,63.38h14a18.88,18.88,0,0,1,0,37.76h-14Zm14,28a8.94,8.94,0,1,0,0-17.87h-4.18V91.37Z"/><path class="cls-1" d="M159.1,101.14A18.88,18.88,0,1,1,178,82.31,18.8,18.8,0,0,1,159.1,101.14Zm0-27.89a9,9,0,1,0,9,9A9,9,0,0,0,159.1,73.25Z"/><path class="cls-1" d="M182,89.61h10.06c0,1.61,1.46,2.92,3.68,2.92,2,0,3.57-1.16,3.57-2.92s-1.71-3-3.67-3c-7.3,0-13.59-5.19-13.59-11.63s5.68-11.63,13.69-11.63c7.55,0,13.64,5.14,13.64,11.58h-10c0-1.56-1.56-2.92-3.62-2.92s-3.63,1.16-3.63,2.92,1.46,3,3.63,3c7.7,0,13.64,5.24,13.64,11.63s-5.94,11.58-13.49,11.58C187.64,101.14,182,95.75,182,89.61Z"/><path class="cls-1" d="M218,101.14a3.94,3.94,0,0,1-4-3.88,4,4,0,1,1,7.95,0,10.51,10.51,0,0,1-4,8Z"/><path class="cls-1" d="M248.9,73.2h-9.81V63.33h29.75V73.2h-10v27.94H248.9Z"/><path class="cls-1" d="M275.63,63.38h15.91A13.86,13.86,0,0,1,301,87.44l8,13.7H297.53l-5.84-10h-6.14v10h-9.92Zm16.06,19.18a5.41,5.41,0,1,0,0-10.82h-6.14V82.56Z"/><path class="cls-1" d="M314.74,63.38H338.2v8.21H324.66v6.14h12v8.35h-12v7H338.2v8.11H314.74Z"/><path class="cls-1" d="M343,89.61h10.07c0,1.61,1.46,2.92,3.67,2.92,2,0,3.58-1.16,3.58-2.92s-1.71-3-3.68-3C349.32,86.64,343,81.45,343,75s5.69-11.63,13.69-11.63c7.56,0,13.65,5.14,13.65,11.58h-10c0-1.56-1.56-2.92-3.63-2.92S353.1,73.2,353.1,75s1.46,3,3.62,3c7.71,0,13.65,5.24,13.65,11.63s-5.94,11.58-13.49,11.58C348.62,101.14,343,95.75,343,89.61Z"/><path class="cls-1" d="M375,97.06a4,4,0,1,1,7.95,0,4,4,0,1,1-7.95,0Z"/><path class="cls-1" d="M401.82,63.38h15.91a13.87,13.87,0,0,1,.2,27.74h-6.19v10h-9.92Zm16.06,19.18a5.41,5.41,0,1,0,0-10.82h-6.14V82.56Z"/><path class="cls-1" d="M437.41,63.38h15.91a13.86,13.86,0,0,1,9.41,24.06l8,13.7H459.31l-5.84-10h-6.14v10h-9.92Zm16.06,19.18a5.41,5.41,0,1,0,0-10.82h-6.14V82.56Z"/><path class="cls-1" d="M493.59,101.14a18.88,18.88,0,1,1,18.88-18.83A18.8,18.8,0,0,1,493.59,101.14Zm0-27.89a9,9,0,1,0,9,9A9,9,0,0,0,493.59,73.25Z"/><path class="cls-1" d="M519.26,63.38h16.66A11.4,11.4,0,0,1,547.1,74.61a11,11,0,0,1-2.42,6.79,11,11,0,0,1-6.79,19.74H519.26ZM534,78.13a3.27,3.27,0,0,0,0-6.54h-4.78v6.54ZM535.82,93a3.26,3.26,0,0,0,3.27-3.27,3.33,3.33,0,0,0-3.27-3.27h-6.64V93Z"/><path class="cls-1" d="M569.35,63.38h4.43l17.77,37.76h-9.92l-2.32-4.94H563.86l-2.27,4.94h-9.86Zm6.09,24.47-3.83-8.31-3.87,8.31Z"/><path class="cls-1" d="M596.33,63.38h4L618.22,81.2V63.38h9.92v37.76h-4.08L606.24,83.27v17.87h-9.91Z"/><path class="cls-1" d="M636.19,63.38h14a18.88,18.88,0,0,1,0,37.76h-14Zm14,28a8.94,8.94,0,1,0,0-17.87h-4.18V91.37Z"/><path class="cls-1" d="M692.92,101.14A18.88,18.88,0,1,1,711.8,82.31,18.8,18.8,0,0,1,692.92,101.14Zm0-27.89a9,9,0,1,0,9,9A9,9,0,0,0,692.92,73.25Z"/><path class="cls-1" d="M745.32,63.38h8.86l-17.46,37.76h-8.81Z"/><path class="cls-1" d="M772.05,63.38H782V76.82h12V63.38h9.92v37.76H794V86.74H782v14.4h-9.92Z"/><path class="cls-1" d="M829.49,101.14a18.88,18.88,0,1,1,18.87-18.83A18.8,18.8,0,0,1,829.49,101.14Zm0-27.89a9,9,0,1,0,9,9A9,9,0,0,0,829.49,73.25Z"/><path class="cls-1" d="M855.16,63.38h9.91V91.17h13.6v10H855.16Z"/><path class="cls-1" d="M900.56,63.38H905l17.77,37.76h-9.92l-2.31-4.94H895.08l-2.27,4.94h-9.87Zm6.09,24.47-3.82-8.31L899,87.85Z"/><path class="cls-1" d="M925.83,97.06a4,4,0,1,1,7.95,0,4,4,0,1,1-7.95,0Z"/><path class="cls-1" d="M952.71,63.38h9.92V76.82h12V63.38h9.91v37.76h-9.91V86.74h-12v14.4h-9.92Z"/><path class="cls-1" d="M1010.14,101.14A18.88,18.88,0,1,1,1029,82.31,18.8,18.8,0,0,1,1010.14,101.14Zm0-27.89a9,9,0,1,0,9,9A9,9,0,0,0,1010.14,73.25Z"/><path class="cls-1" d="M1037.58,101.14a3.94,3.94,0,0,1-4-3.88,4,4,0,1,1,8,0,10.47,10.47,0,0,1-4,8Z"/><path class="cls-1" d="M1060.48,63.38h9.92V76.82h12V63.38h9.91v37.76h-9.91V86.74h-12v14.4h-9.92Z"/><path class="cls-1" d="M1117.92,101.14a18.88,18.88,0,1,1,18.87-18.83A18.8,18.8,0,0,1,1117.92,101.14Zm0-27.89a9,9,0,1,0,9,9A9,9,0,0,0,1117.92,73.25Z"/><path class="cls-1" d="M1145.35,101.14a3.94,3.94,0,0,1-4-3.88,4,4,0,1,1,8,0,10.47,10.47,0,0,1-4,8Z"/><path class="cls-1" d="M1168.25,63.38h9.92V76.82h12V63.38h9.91v37.76h-9.91V86.74h-12v14.4h-9.92Z"/><path class="cls-1" d="M1225.68,101.14a18.88,18.88,0,1,1,18.88-18.83A18.8,18.8,0,0,1,1225.68,101.14Zm0-27.89a9,9,0,1,0,9,9A9,9,0,0,0,1225.68,73.25Z"/><path class="cls-1" d="M1251.36,63.38h9.91V91.17h13.59v10h-23.5Z"/><path class="cls-1" d="M1296.76,63.38h4.43L1319,101.14H1309l-2.31-4.94h-15.46l-2.26,4.94h-9.87Zm6.09,24.47L1299,79.54l-3.88,8.31Z"/><path class="cls-1" d="M1351,63.38h8.86l-17.46,37.76h-8.81Z"/><path class="cls-1" d="M1377.2,86.24V63.38h10v22.7a4.93,4.93,0,1,0,9.86,0V63.38h10V86.24a14.9,14.9,0,0,1-29.8,0Z"/><path class="cls-1" d="M1414.55,63.38h4l17.87,17.82V63.38h9.91v37.76h-4.08l-17.81-17.87v17.87h-9.92Z"/><path class="cls-1" d="M1456.18,101.14a3.94,3.94,0,0,1-4-3.88,4,4,0,1,1,8,0,10.47,10.47,0,0,1-4,8Z"/><path class="cls-1" d="M1479.08,63.38h14a18.88,18.88,0,1,1,0,37.76h-14Zm14,28a8.94,8.94,0,1,0,0-17.87H1489V91.37Z"/><path class="cls-1" d="M1535.81,101.14a18.88,18.88,0,1,1,18.88-18.83A18.8,18.8,0,0,1,1535.81,101.14Zm0-27.89a9,9,0,1,0,9,9A9,9,0,0,0,1535.81,73.25Z"/><path class="cls-1" d="M1558.71,89.61h10.07c0,1.61,1.46,2.92,3.68,2.92,2,0,3.57-1.16,3.57-2.92s-1.71-3-3.68-3c-7.3,0-13.59-5.19-13.59-11.63s5.69-11.63,13.7-11.63c7.55,0,13.64,5.14,13.64,11.58h-10c0-1.56-1.56-2.92-3.62-2.92s-3.63,1.16-3.63,2.92,1.46,3,3.63,3c7.7,0,13.64,5.24,13.64,11.63s-5.94,11.58-13.49,11.58C1564.35,101.14,1558.71,95.75,1558.71,89.61Z"/><path class="cls-1" d="M1594.65,101.14a3.94,3.94,0,0,1-4-3.88,4,4,0,1,1,8,0,10.5,10.5,0,0,1-4,8Z"/><path class="cls-1" d="M1625.61,73.2h-9.82V63.33h29.75V73.2h-10v27.94h-9.92Z"/><path class="cls-1" d="M1652.34,63.38h15.91a13.86,13.86,0,0,1,9.41,24.06l8,13.7h-11.42l-5.84-10h-6.14v10h-9.92Zm16.06,19.18a5.41,5.41,0,1,0,0-10.82h-6.14V82.56Z"/><path class="cls-1" d="M1691.45,63.38h23.46v8.21h-13.54v6.14h12v8.35h-12v7h13.54v8.11h-23.46Z"/><path class="cls-1" d="M1719.69,89.61h10.07c0,1.61,1.46,2.92,3.67,2.92,2,0,3.58-1.16,3.58-2.92s-1.72-3-3.68-3c-7.3,0-13.59-5.19-13.59-11.63s5.69-11.63,13.69-11.63c7.55,0,13.64,5.14,13.64,11.58h-10c0-1.56-1.56-2.92-3.62-2.92s-3.62,1.16-3.62,2.92,1.46,3,3.62,3c7.7,0,13.64,5.24,13.64,11.63s-5.94,11.58-13.49,11.58C1725.33,101.14,1719.69,95.75,1719.69,89.61Z"/><path class="cls-1" d="M1751.65,97.06a4,4,0,1,1,8,0,4,4,0,1,1-8,0Z"/><path class="cls-1" d="M1775.76,89.61h10.07c0,1.61,1.46,2.92,3.68,2.92,2,0,3.57-1.16,3.57-2.92s-1.71-3-3.67-3c-7.3,0-13.6-5.19-13.6-11.63s5.69-11.63,13.7-11.63c7.55,0,13.64,5.14,13.64,11.58h-10c0-1.56-1.56-2.92-3.62-2.92s-3.63,1.16-3.63,2.92,1.46,3,3.63,3c7.7,0,13.64,5.24,13.64,11.63s-5.94,11.58-13.49,11.58C1781.4,101.14,1775.76,95.75,1775.76,89.61Z"/><path class="cls-1" d="M1809.94,63.38h9.92v37.76h-9.92Zm5.64-11.32h6.9l-5.24,7.5h-4.83Z"/><path class="cls-1" d="M1855.14,63.38H1864l-17.46,37.76h-8.81Z"/><path class="cls-1" d="M1881.87,63.38h9.92V76.82h12V63.38h9.92v37.76h-9.92V86.74h-12v14.4h-9.92Z"/><path class="cls-1" d="M1939.31,101.14a18.88,18.88,0,1,1,18.87-18.83A18.8,18.8,0,0,1,1939.31,101.14Zm0-27.89a9,9,0,1,0,9,9A9,9,0,0,0,1939.31,73.25Z"/><path class="cls-1" d="M1965,63.38h9.91V91.17h13.6v10H1965Z"/><path class="cls-1" d="M2010.38,63.38h4.43l17.77,37.76h-9.91l-2.32-4.94H2004.9l-2.27,4.94h-9.87Zm6.09,24.47-3.82-8.31-3.88,8.31Z"/><path class="cls-1" d="M2064.59,63.38h8.86L2056,101.14h-8.81Z"/><path class="cls-1" d="M2090.82,86.24V63.38h10v22.7a4.93,4.93,0,1,0,9.86,0V63.38h10V86.24a14.9,14.9,0,0,1-29.8,0Z"/><path class="cls-1" d="M2128.17,63.38h4l17.87,17.82V63.38H2160v37.76h-4.07l-17.82-17.87v17.87h-9.92Z"/><path class="cls-1" d="M2169.8,101.14a3.94,3.94,0,0,1-4-3.88,4,4,0,1,1,8,0,10.5,10.5,0,0,1-4,8Z"/><path class="cls-1" d="M2192.7,63.38h14a18.88,18.88,0,0,1,0,37.76h-14Zm14.05,28a8.94,8.94,0,1,0,0-17.87h-4.18V91.37Z"/><path class="cls-1" d="M2249.43,101.14a18.88,18.88,0,1,1,18.88-18.83A18.8,18.8,0,0,1,2249.43,101.14Zm0-27.89a9,9,0,1,0,9,9A9,9,0,0,0,2249.43,73.25Z"/><path class="cls-1" d="M2272.33,89.61h10.07c0,1.61,1.46,2.92,3.68,2.92,2,0,3.57-1.16,3.57-2.92s-1.71-3-3.67-3c-7.3,0-13.6-5.19-13.6-11.63s5.69-11.63,13.7-11.63c7.55,0,13.64,5.14,13.64,11.58h-10c0-1.56-1.56-2.92-3.62-2.92s-3.63,1.16-3.63,2.92,1.46,3,3.63,3c7.7,0,13.64,5.24,13.64,11.63s-5.94,11.58-13.49,11.58C2278,101.14,2272.33,95.75,2272.33,89.61Z"/><path class="cls-1" d="M2308.27,101.14a3.94,3.94,0,0,1-4-3.88,4,4,0,1,1,7.95,0,10.5,10.5,0,0,1-4,8Z"/><path class="cls-1" d="M2339.23,73.2h-9.82V63.33h29.76V73.2h-10v27.94h-9.92Z"/><path class="cls-1" d="M2366,63.38h15.91a13.86,13.86,0,0,1,9.41,24.06l8,13.7h-11.42l-5.84-10h-6.14v10H2366ZM2382,82.56a5.41,5.41,0,1,0,0-10.82h-6.14V82.56Z"/><path class="cls-1" d="M2405.07,63.38h23.46v8.21H2415v6.14h12v8.35h-12v7h13.54v8.11h-23.46Z"/><path class="cls-1" d="M2433.31,89.61h10.07c0,1.61,1.46,2.92,3.67,2.92,2,0,3.58-1.16,3.58-2.92s-1.71-3-3.68-3c-7.3,0-13.59-5.19-13.59-11.63s5.69-11.63,13.69-11.63c7.55,0,13.64,5.14,13.64,11.58h-10c0-1.56-1.56-2.92-3.63-2.92s-3.62,1.16-3.62,2.92,1.46,3,3.62,3c7.7,0,13.64,5.24,13.64,11.63s-5.94,11.58-13.49,11.58C2439,101.14,2433.31,95.75,2433.31,89.61Z"/><path class="cls-1" d="M2465.27,97.06a4,4,0,1,1,8,0,4,4,0,1,1-8,0Z"/><path class="cls-1" d="M2492.15,63.38h15.91a13.87,13.87,0,0,1,.2,27.74h-6.19v10h-9.92Zm16.06,19.18a5.41,5.41,0,1,0,0-10.82h-6.14V82.56Z"/><path class="cls-1" d="M2527.74,63.38h15.91a13.86,13.86,0,0,1,9.41,24.06l8,13.7h-11.43l-5.84-10h-6.14v10h-9.92Zm16.06,19.18a5.41,5.41,0,1,0,0-10.82h-6.14V82.56Z"/><path class="cls-1" d="M2583.92,101.14a18.88,18.88,0,1,1,18.87-18.83A18.8,18.8,0,0,1,2583.92,101.14Zm0-27.89a9,9,0,1,0,9,9A9,9,0,0,0,2583.92,73.25Z"/><path class="cls-1" d="M2609.59,63.38h16.66a11.4,11.4,0,0,1,11.18,11.23A11,11,0,0,1,2635,81.4a11,11,0,0,1-6.8,19.74h-18.62Zm14.7,14.75a3.27,3.27,0,0,0,0-6.54h-4.78v6.54ZM2626.15,93a3.26,3.26,0,0,0,3.27-3.27,3.33,3.33,0,0,0-3.27-3.27h-6.64V93Z"/><path class="cls-1" d="M2659.67,63.38h4.43l17.77,37.76H2672l-2.32-4.94h-15.45l-2.27,4.94h-9.87Zm6.09,24.47-3.82-8.31-3.88,8.31Z"/><path class="cls-1" d="M2686.65,63.38h4l17.87,17.82V63.38h9.92v37.76h-4.08l-17.82-17.87v17.87h-9.92Z"/><path class="cls-1" d="M2726.52,63.38h14a18.88,18.88,0,0,1,0,37.76h-14Zm14,28a8.94,8.94,0,1,0,0-17.87h-4.17V91.37Z"/><path class="cls-1" d="M2783.25,101.14a18.88,18.88,0,1,1,18.88-18.83A18.8,18.8,0,0,1,2783.25,101.14Zm0-27.89a9,9,0,1,0,9,9A9,9,0,0,0,2783.25,73.25Z"/><path class="cls-1" d="M2835.65,63.38h8.86L2827,101.14h-8.81Z"/><path class="cls-1" d="M2862.38,63.38h9.92V76.82h12V63.38h9.91v37.76h-9.91V86.74h-12v14.4h-9.92Z"/><path class="cls-1" d="M2919.81,101.14a18.88,18.88,0,1,1,18.88-18.83A18.8,18.8,0,0,1,2919.81,101.14Zm0-27.89a9,9,0,1,0,9,9A9,9,0,0,0,2919.81,73.25Z"/><path class="cls-1" d="M2945.48,63.38h9.92V91.17H2969v10h-23.51Z"/><path class="cls-1" d="M2990.89,63.38h4.43l17.77,37.76h-9.92l-2.31-4.94H2985.4l-2.26,4.94h-9.87ZM2997,87.85l-3.83-8.31-3.87,8.31Z"/><path class="cls-1" d="M3016.16,97.06a4,4,0,1,1,8,0,4,4,0,1,1-8,0Z"/><path class="cls-1" d="M3043,63.38H3053V76.82h12V63.38h9.92v37.76h-9.92V86.74h-12v14.4H3043Z"/><path class="cls-1" d="M3100.47,101.14a18.88,18.88,0,1,1,18.88-18.83A18.8,18.8,0,0,1,3100.47,101.14Zm0-27.89a9,9,0,1,0,9,9A9,9,0,0,0,3100.47,73.25Z"/><path class="cls-1" d="M3127.91,101.14a3.94,3.94,0,0,1-4-3.88,4,4,0,1,1,8,0,10.51,10.51,0,0,1-4,8Z"/><path class="cls-1" d="M3150.81,63.38h9.91V76.82h12V63.38h9.92v37.76h-9.92V86.74h-12v14.4h-9.91Z"/><path class="cls-1" d="M3208.24,101.14a18.88,18.88,0,1,1,18.88-18.83A18.8,18.8,0,0,1,3208.24,101.14Zm0-27.89a9,9,0,1,0,9,9A9,9,0,0,0,3208.24,73.25Z"/><path class="cls-1" d="M3235.67,101.14a3.94,3.94,0,0,1-4-3.88,4,4,0,1,1,8,0,10.5,10.5,0,0,1-4,8Z"/><path class="cls-1" d="M3258.58,63.38h9.91V76.82h12V63.38h9.92v37.76h-9.92V86.74h-12v14.4h-9.91Z"/><path class="cls-1" d="M3316,101.14a18.88,18.88,0,1,1,18.88-18.83A18.8,18.8,0,0,1,3316,101.14Zm0-27.89a9,9,0,1,0,9,9A9,9,0,0,0,3316,73.25Z"/><path class="cls-1" d="M3341.68,63.38h9.92V91.17h13.59v10h-23.51Z"/><path class="cls-1" d="M3387.09,63.38h4.43l17.77,37.76h-9.92l-2.32-4.94H3381.6l-2.26,4.94h-9.87Zm6.09,24.47-3.83-8.31-3.87,8.31Z"/><path class="cls-1" d="M3441.3,63.38h8.86l-17.47,37.76h-8.81Z"/><path class="cls-1" d="M3467.52,86.24V63.38h10v22.7a4.94,4.94,0,1,0,9.87,0V63.38h10V86.24a14.91,14.91,0,0,1-29.81,0Z"/><path class="cls-1" d="M3504.87,63.38h4l17.87,17.82V63.38h9.92v37.76h-4.08l-17.82-17.87v17.87h-9.92Z"/><path class="cls-1" d="M3546.5,101.14a3.94,3.94,0,0,1-4-3.88,4,4,0,1,1,7.95,0,10.5,10.5,0,0,1-4,8Z"/><path class="cls-1" d="M3569.41,63.38h14a18.88,18.88,0,1,1,0,37.76h-14Zm14,28a8.94,8.94,0,1,0,0-17.87h-4.18V91.37Z"/><path class="cls-1" d="M3626.14,101.14A18.88,18.88,0,1,1,3645,82.31,18.8,18.8,0,0,1,3626.14,101.14Zm0-27.89a9,9,0,1,0,9,9A9,9,0,0,0,3626.14,73.25Z"/><path class="cls-1" d="M3649,89.61h10.07c0,1.61,1.46,2.92,3.67,2.92,2,0,3.58-1.16,3.58-2.92s-1.72-3-3.68-3c-7.3,0-13.59-5.19-13.59-11.63s5.69-11.63,13.69-11.63c7.55,0,13.64,5.14,13.64,11.58h-10c0-1.56-1.57-2.92-3.63-2.92s-3.62,1.16-3.62,2.92,1.46,3,3.62,3c7.7,0,13.64,5.24,13.64,11.63s-5.94,11.58-13.49,11.58C3654.68,101.14,3649,95.75,3649,89.61Z"/><path class="cls-1" d="M3685,101.14a3.94,3.94,0,0,1-4-3.88,4,4,0,1,1,8,0,10.5,10.5,0,0,1-4,8Z"/><path class="cls-1" d="M3715.94,73.2h-9.82V63.33h29.75V73.2h-10v27.94h-9.91Z"/><path class="cls-1" d="M3742.66,63.38h15.91A13.86,13.86,0,0,1,3768,87.44l8,13.7h-11.43l-5.84-10h-6.14v10h-9.92Zm16.06,19.18a5.41,5.41,0,1,0,0-10.82h-6.14V82.56Z"/><path class="cls-1" d="M3781.78,63.38h23.45v8.21h-13.54v6.14h12v8.35h-12v7h13.54v8.11h-23.45Z"/><path class="cls-1" d="M3810,89.61h10.07c0,1.61,1.46,2.92,3.68,2.92,2,0,3.57-1.16,3.57-2.92s-1.71-3-3.67-3c-7.3,0-13.59-5.19-13.59-11.63s5.68-11.63,13.69-11.63c7.55,0,13.64,5.14,13.64,11.58h-10c0-1.56-1.56-2.92-3.62-2.92s-3.63,1.16-3.63,2.92,1.46,3,3.63,3c7.7,0,13.64,5.24,13.64,11.63s-5.94,11.58-13.49,11.58C3815.65,101.14,3810,95.75,3810,89.61Z"/><path class="cls-1" d="M3842,97.06a4,4,0,1,1,7.95,0,4,4,0,1,1-7.95,0Z"/><path class="cls-1" d="M3866.09,89.61h10.07c0,1.61,1.46,2.92,3.67,2.92,2,0,3.58-1.16,3.58-2.92s-1.72-3-3.68-3c-7.3,0-13.59-5.19-13.59-11.63s5.69-11.63,13.69-11.63c7.55,0,13.64,5.14,13.64,11.58h-10c0-1.56-1.56-2.92-3.63-2.92s-3.62,1.16-3.62,2.92,1.46,3,3.62,3c7.7,0,13.64,5.24,13.64,11.63s-5.94,11.58-13.49,11.58C3871.73,101.14,3866.09,95.75,3866.09,89.61Z"/><path class="cls-1" d="M3900.27,63.38h9.91v37.76h-9.91Zm5.64-11.32h6.89l-5.23,7.5h-4.84Z"/><path class="cls-1" d="M3945.47,63.38h8.86l-17.47,37.76h-8.81Z"/><path class="cls-1" d="M3972.2,63.38h9.92V76.82h12V63.38H4004v37.76h-9.91V86.74h-12v14.4h-9.92Z"/><path class="cls-1" d="M4029.63,101.14a18.88,18.88,0,1,1,18.88-18.83A18.8,18.8,0,0,1,4029.63,101.14Zm0-27.89a9,9,0,1,0,9,9A9,9,0,0,0,4029.63,73.25Z"/><path class="cls-1" d="M4055.3,63.38h9.92V91.17h13.59v10H4055.3Z"/><path class="cls-1" d="M4100.71,63.38h4.43l17.77,37.76H4113l-2.31-4.94h-15.46l-2.26,4.94h-9.87Zm6.09,24.47L4103,79.54l-3.87,8.31Z"/><path class="cls-1" d="M4154.92,63.38h8.86l-17.47,37.76h-8.8Z"/></svg>