<?xml version="1.0" encoding="utf-8"?>
<!-- Generator: Adobe Illustrator 25.4.1, SVG Export Plug-In . SVG Version: 6.00 Build 0)  -->
<svg version="1.1" id="Capa_1" xmlns="http://www.w3.org/2000/svg" xmlns:xlink="http://www.w3.org/1999/xlink" x="0px" y="0px"
	 viewBox="0 0 616.5 228.4" style="enable-background:new 0 0 616.5 228.4;" xml:space="preserve">
<style type="text/css">
	.st0{enable-background:new    ;}
	.st1{fill:#36343A;}
	.st2{fill:#FFBE00;}
</style>
<g class="st0">
	<path class="st1" d="M130.9,159.6h5.5v7.4h6.6v-7.4h5.5v20.8h-5.5v-7.9h-6.6v7.9h-5.5V159.6z"/>
</g>
<g class="st0">
	<path class="st1" d="M152.9,172.1v-12.6h5.5V172c0,1.5,1.2,2.7,2.7,2.7c1.5,0,2.7-1.2,2.7-2.7v-12.5h5.5v12.6
		c0,4.6-3.7,8.2-8.2,8.2C156.5,180.3,152.9,176.7,152.9,172.1z"/>
</g>
<g class="st0">
	<path class="st1" d="M173.7,159.6h2.5l8.5,7.7l8.4-7.7h2.5v20.8h-5.5v-10.7l-5.4,5l-5.5-4.9v10.6h-5.5V159.6z"/>
</g>
<g class="st0">
	<path class="st1" d="M200,159.6h2.5l8.5,7.7l8.4-7.7h2.5v20.8h-5.5v-10.7l-5.4,5l-5.5-4.9v10.6H200V159.6z"/>
</g>
<g class="st0">
	<path class="st1" d="M226.3,172.1v-12.6h5.5V172c0,1.5,1.2,2.7,2.7,2.7c1.5,0,2.7-1.2,2.7-2.7v-12.5h5.5v12.6
		c0,4.6-3.7,8.2-8.2,8.2C229.9,180.3,226.3,176.7,226.3,172.1z"/>
</g>
<g class="st0">
	<path class="st1" d="M245.9,174h5.5c0,0.9,0.8,1.6,2,1.6c1.1,0,2-0.6,2-1.6c0-1-0.9-1.6-2-1.6c-4,0-7.5-2.9-7.5-6.4
		s3.1-6.4,7.5-6.4c4.2,0,7.5,2.8,7.5,6.4h-5.5c0-0.9-0.9-1.6-2-1.6c-1.2,0-2,0.6-2,1.6c0,1,0.8,1.6,2,1.6c4.2,0,7.5,2.9,7.5,6.4
		c0,3.5-3.3,6.4-7.4,6.4C249,180.3,245.9,177.4,245.9,174z"/>
</g>
<g class="st0">
	<path class="st1" d="M271.7,159.6h7.7c5.7,0,10.4,4.7,10.4,10.4c0,5.7-4.7,10.4-10.4,10.4h-7.7V159.6z M279.4,175
		c2.7,0,4.9-2.2,4.9-4.9c0-2.7-2.2-4.9-4.9-4.9h-2.3v9.8H279.4z"/>
</g>
<g class="st0">
	<path class="st1" d="M293.4,159.6h12.9v4.5h-7.4v3.4h6.6v4.6h-6.6v3.8h7.4v4.5h-12.9V159.6z"/>
</g>
<g class="st0">
	<path class="st1" d="M316.4,169.9c0-5.7,4.6-10.4,10.4-10.4c2.9,0,5.4,1.2,7.3,3l-3.8,3.8c-0.9-0.8-2-1.4-3.5-1.4
		c-2.6,0-4.9,2.1-4.9,4.9s2.4,4.9,4.9,4.9c1.6,0,3.2-0.8,4-2h-4v-3.7h10.4v0.8c0,5.7-4.7,10.4-10.4,10.4S316.4,175.7,316.4,169.9z"
		/>
</g>
<g class="st0">
	<path class="st1" d="M347.2,159.6h2.4l9.8,20.8h-5.5l-1.3-2.7h-8.5l-1.2,2.7h-5.4L347.2,159.6z M350.5,173l-2.1-4.6l-2.1,4.6H350.5
		z"/>
</g>
<g class="st0">
	<path class="st1" d="M362.1,159.6h8.8c4.2,0,7.6,3.4,7.6,7.6c0,2.2-1,4.2-2.5,5.6l4.4,7.5h-6.3l-3.2-5.5h-3.4v5.5h-5.5V159.6z
		 M370.9,170.1c1.7,0,3-1.3,3-3c0-1.7-1.3-3-3-3h-3.4v6H370.9z"/>
</g>
<g class="st0">
	<path class="st1" d="M383.3,159.6h9.2c3.3,0,6.1,2.9,6.1,6.2c0,1.4-0.5,2.7-1.3,3.7c1.4,1.1,2.4,2.9,2.4,4.8c0,3.3-2.8,6.1-6.1,6.1
		h-10.2V159.6z M391.4,167.7c1,0,1.8-0.8,1.8-1.8s-0.8-1.8-1.8-1.8h-2.6v3.6H391.4z M392.4,175.8c1,0,1.8-0.8,1.8-1.8
		s-0.9-1.8-1.8-1.8h-3.7v3.6H392.4z"/>
</g>
<g class="st0">
	<path class="st1" d="M410.5,159.6h2.4l9.8,20.8h-5.5l-1.3-2.7h-8.5l-1.2,2.7h-5.4L410.5,159.6z M413.8,173l-2.1-4.6l-2.1,4.6H413.8
		z"/>
</g>
<g class="st0">
	<path class="st1" d="M425.2,159.6h2.2l9.8,9.8v-9.8h5.5v20.8h-2.2l-9.8-9.8v9.8h-5.5V159.6z"/>
</g>
<g class="st0">
	<path class="st1" d="M454.7,165h-8.9v-5.5h18.3l-8.8,15.3h8.9v5.5h-18.3L454.7,165z"/>
</g>
<g class="st0">
	<path class="st1" d="M476.3,180.3c-5.7,0-10.4-4.6-10.4-10.4c0-5.7,4.6-10.4,10.4-10.4s10.4,4.7,10.4,10.4
		C486.6,175.7,482,180.3,476.3,180.3z M476.3,165c-2.7,0-4.9,2.2-4.9,5c0,2.7,2.2,5,4.9,5c2.7,0,5-2.2,5-5
		C481.2,167.2,479,165,476.3,165z"/>
</g>
<path class="st2" d="M25.4,39.4h11.7l40.2,36.5l40.1-36.5H129v98.5h-26V87.3l-25.8,23.5L51.4,87.5v50.4h-26L25.4,39.4z"/>
<path class="st2" d="M137.8,39.4H199v21.4h-35.4v16h31.2v21.8h-31.2v18.1H199v21.1h-61.2V39.4z"/>
<path class="st2" d="M205.1,107.8h26.3c0,4.2,3.8,7.6,9.6,7.6c5.3,0,9.3-3,9.3-7.6c0-4.9-4.5-7.8-9.6-7.8c-19,0-35.4-13.5-35.4-30.3
	s14.8-30.3,35.7-30.3c19.7,0,35.6,13.4,35.6,30.2h-26.1c0-4.1-4.1-7.6-9.5-7.6c-5.6,0-9.4,3-9.4,7.6s3.8,7.7,9.4,7.7
	c20.1,0,35.6,13.7,35.6,30.3s-15.5,30.2-35.2,30.2C219.8,137.9,205.1,123.9,205.1,107.8z"/>
<path class="st2" d="M309.2,65h-25.6V39.3h77.6V65h-26.1v23.6L309.2,125V65z"/>
<path class="st2" d="M364.5,88.7l25.9-36.4v85.6h-25.9V88.7z"/>
<path class="st2" d="M442,65h-42V39h86.8l-41.9,72.6h42v25.9h-86.8L442,65z"/>
<path class="st2" d="M541.9,137.8c-27.2,0-49.2-22-49.2-49.2s22-49.2,49.2-49.2s49.2,22,49.2,49.2c0,0,0,0.1,0,0.1
	c0.1,27.1-21.8,49-48.9,49.1C542.2,137.8,542,137.8,541.9,137.8z M541.9,65c-13,0-23.5,10.5-23.5,23.5c0,13,10.5,23.5,23.5,23.5
	c13,0,23.5-10.5,23.5-23.5c0,0,0,0,0,0c0-13-10.4-23.5-23.4-23.5C542,65,542,65,541.9,65L541.9,65z"/>
</svg>
