<?xml version="1.0" encoding="utf-8"?>
<!-- Generator: Adobe Illustrator 25.4.1, SVG Export Plug-In . SVG Version: 6.00 Build 0)  -->
<svg version="1.1" id="Layer_1" xmlns="http://www.w3.org/2000/svg" xmlns:xlink="http://www.w3.org/1999/xlink" x="0px" y="0px"
	 viewBox="0 0 1740.46 258.53" style="enable-background:new 0 0 1740.46 258.53;" xml:space="preserve">
<style type="text/css">
	.st0{fill:#FFFEF2;}
	.st1{fill:#FFFFFF;}
	.st2{fill:#414042;}
	.st3{fill:#665FAD;}
	.st4{fill:#00AE6F;}
	.st5{fill:#FABC9E;}
	.st6{fill:#86D0D8;}
	.st7{fill:#0078C0;}
	.st8{fill:#E63621;}
	.st9{fill:#665FAC;}
	.st10{fill:#86D2DA;}
	.st11{fill:#645FAA;}
	.st12{fill:#C83927;}
	.st13{fill:#FDB525;}
	.st14{fill:#00AD6F;}
	.st15{fill:#83CFD7;}
	.st16{fill:#635FA8;}
	.st17{fill:none;}
	.st18{fill:#FBB324;}
	.st19{fill:#C63827;}
	.st20{fill:#0077C0;}
	.st21{fill:#EABC9E;}
</style>
<g>
	<g>
		<path class="st10" d="M208.41,11.77c11.77,5.23,20.84,12.75,27.22,22.56c6.38,9.81,9.56,21.25,9.56,34.33
			c0,13.08-3.19,24.52-9.56,34.33c-6.38,9.81-15.45,17.33-27.22,22.56c-11.77,5.23-25.59,7.85-41.44,7.85H142.2v42.18H84.33V3.92
			h82.63C182.82,3.92,196.63,6.54,208.41,11.77z M180.94,83.49c3.92-3.51,5.89-8.46,5.89-14.83s-1.96-11.32-5.89-14.84
			c-3.92-3.51-9.81-5.27-17.65-5.27H142.2v40.21h21.09C171.13,88.77,177.02,87.01,180.94,83.49z"/>
		<path class="st10" d="M337.63,132.41h-15.69v43.16h-57.87V3.92h82.63c15.85,0,29.67,2.62,41.44,7.85
			c11.77,5.23,20.84,12.75,27.22,22.56c6.38,9.81,9.56,21.25,9.56,34.33c0,12.26-2.78,22.97-8.34,32.12
			c-5.56,9.16-13.57,16.43-24.03,21.82l36.05,52.96h-61.79L337.63,132.41z M360.68,53.82c-3.92-3.51-9.81-5.27-17.65-5.27h-21.09
			v40.21h21.09c7.85,0,13.73-1.75,17.65-5.27c3.92-3.51,5.89-8.46,5.89-14.83S364.6,57.34,360.68,53.82z"/>
		<path class="st10" d="M486.96,167.97c-14.71-7.68-26.24-18.35-34.57-32c-8.34-13.65-12.51-29.06-12.51-46.22
			s4.17-32.57,12.51-46.22c8.34-13.65,19.86-24.31,34.57-32C501.67,3.84,518.26,0,536.74,0c18.47,0,35.06,3.84,49.78,11.52
			c14.71,7.69,26.24,18.35,34.57,32c8.34,13.65,12.51,29.06,12.51,46.22s-4.17,32.57-12.51,46.22c-8.34,13.65-19.86,24.32-34.57,32
			s-31.31,11.52-49.78,11.52C518.26,179.49,501.67,175.65,486.96,167.97z M556.23,127.39c5.8-3.51,10.42-8.5,13.85-14.96
			c3.43-6.46,5.15-14.02,5.15-22.68c0-8.66-1.72-16.22-5.15-22.68c-3.43-6.46-8.05-11.44-13.85-14.96
			c-5.8-3.51-12.3-5.27-19.49-5.27c-7.2,0-13.69,1.76-19.49,5.27c-5.8,3.52-10.42,8.5-13.85,14.96c-3.43,6.46-5.15,14.02-5.15,22.68
			c0,8.67,1.72,16.23,5.15,22.68c3.43,6.46,8.05,11.44,13.85,14.96c5.8,3.52,12.3,5.27,19.49,5.27
			C543.93,132.66,550.43,130.9,556.23,127.39z"/>
		<path class="st10" d="M654.68,3.92h84.6c19.13,0,36,3.48,50.64,10.42c14.63,6.95,25.99,16.88,34.08,29.79
			c8.09,12.92,12.14,28.12,12.14,45.61c0,17.49-4.05,32.7-12.14,45.61c-8.09,12.92-19.46,22.85-34.08,29.79
			c-14.63,6.95-31.51,10.42-50.64,10.42h-84.6V3.92z M736.83,130.45c12.42,0,22.35-3.56,29.79-10.67
			c7.44-7.11,11.16-17.12,11.16-30.04c0-12.91-3.72-22.93-11.16-30.04c-7.44-7.11-17.37-10.67-29.79-10.67h-24.28v81.41H736.83z"/>
		<path class="st10" d="M877.82,158.16c-14.71-14.22-22.07-34.16-22.07-59.83V3.92h57.87v92.69c0,12.59,2.25,21.74,6.74,27.46
			c4.49,5.72,10.99,8.58,19.49,8.58c8.5,0,15-2.86,19.49-8.58c4.49-5.72,6.74-14.87,6.74-27.46V3.92h56.89v94.41
			c0,25.67-7.36,45.61-22.07,59.83c-14.71,14.22-35.23,21.33-61.55,21.33C913.04,179.49,892.53,172.38,877.82,158.16z"/>
		<path class="st10" d="M1089.19,168.09c-14.55-7.6-25.95-18.23-34.21-31.88c-8.26-13.65-12.38-29.14-12.38-46.47
			c0-17.33,4.13-32.82,12.38-46.47c8.25-13.65,19.66-24.28,34.21-31.88c14.55-7.6,30.9-11.4,49.04-11.4
			c16.67,0,31.55,2.94,44.63,8.83c13.08,5.89,23.87,14.39,32.37,25.5l-36.54,32.61c-10.63-13.4-23.13-20.11-37.52-20.11
			c-12.1,0-21.82,3.89-29.18,11.65c-7.36,7.77-11.04,18.19-11.04,31.26c0,13.08,3.68,23.5,11.04,31.26
			c7.36,7.77,17.08,11.65,29.18,11.65c14.38,0,26.89-6.7,37.52-20.11l36.54,32.61c-8.5,11.12-19.29,19.62-32.37,25.5
			c-13.08,5.88-27.96,8.83-44.63,8.83C1120.08,179.49,1103.73,175.69,1089.19,168.09z"/>
		<path class="st10" d="M1267.94,48.8h-50.27V3.92h158.4V48.8h-50.27v126.77h-57.87V48.8z"/>
		<path class="st10" d="M1428.8,167.97c-14.71-7.68-26.24-18.35-34.58-32c-8.34-13.65-12.5-29.06-12.5-46.22s4.17-32.57,12.5-46.22
			c8.34-13.65,19.86-24.31,34.58-32C1443.51,3.84,1460.1,0,1478.58,0c18.47,0,35.06,3.84,49.78,11.52
			c14.71,7.69,26.24,18.35,34.58,32c8.34,13.65,12.5,29.06,12.5,46.22s-4.17,32.57-12.5,46.22c-8.34,13.65-19.86,24.32-34.58,32
			c-14.71,7.68-31.3,11.52-49.78,11.52C1460.1,179.49,1443.51,175.65,1428.8,167.97z M1498.07,127.39
			c5.8-3.51,10.42-8.5,13.86-14.96c3.43-6.46,5.15-14.02,5.15-22.68c0-8.66-1.71-16.22-5.15-22.68
			c-3.43-6.46-8.05-11.44-13.86-14.96c-5.8-3.51-12.3-5.27-19.49-5.27c-7.2,0-13.69,1.76-19.49,5.27
			c-5.8,3.52-10.42,8.5-13.86,14.96c-3.43,6.46-5.15,14.02-5.15,22.68c0,8.67,1.72,16.23,5.15,22.68
			c3.43,6.46,8.05,11.44,13.86,14.96c5.8,3.52,12.3,5.27,19.49,5.27C1485.77,132.66,1492.27,130.9,1498.07,127.39z"/>
		<path class="st10" d="M1618.96,174.71c-13.49-3.19-24.56-7.48-33.23-12.87l18.64-42.18c8.17,4.74,17.33,8.54,27.46,11.4
			c10.13,2.86,19.86,4.29,29.18,4.29c8.01,0,13.73-0.77,17.16-2.33c3.43-1.55,5.15-3.88,5.15-6.99c0-3.59-2.25-6.29-6.74-8.09
			c-4.5-1.8-11.89-3.76-22.19-5.88c-13.24-2.78-24.28-5.76-33.1-8.95c-8.83-3.19-16.51-8.42-23.05-15.69
			c-6.54-7.27-9.81-17.12-9.81-29.55c0-10.79,3.02-20.6,9.07-29.42c6.04-8.83,15.08-15.77,27.09-20.84
			c12.02-5.06,26.61-7.6,43.77-7.6c11.77,0,23.33,1.27,34.7,3.8c11.36,2.54,21.37,6.25,30.04,11.16l-17.41,41.93
			c-16.84-8.5-32.78-12.75-47.82-12.75c-14.88,0-22.31,3.6-22.31,10.79c0,3.43,2.21,6.01,6.62,7.72c4.41,1.72,11.69,3.56,21.82,5.52
			c13.08,2.45,24.11,5.27,33.1,8.46c8.99,3.19,16.8,8.38,23.42,15.57c6.62,7.2,9.93,17,9.93,29.42c0,10.79-3.03,20.56-9.07,29.3
			c-6.05,8.75-15.08,15.69-27.1,20.84s-26.61,7.72-43.77,7.72C1646.3,179.49,1632.44,177.9,1618.96,174.71z"/>
	</g>
	<g>
		<path class="st11" d="M187.32,31.53c11.77,5.23,20.84,12.75,27.22,22.56c6.38,9.81,9.56,21.25,9.56,34.33
			c0,13.08-3.19,24.52-9.56,34.33c-6.38,9.81-15.45,17.33-27.22,22.56c-11.77,5.23-25.59,7.85-41.44,7.85h-24.77v42.18H63.25V23.68
			h82.64C161.74,23.68,175.55,26.3,187.32,31.53z M159.86,103.25c3.92-3.51,5.88-8.46,5.88-14.83s-1.96-11.32-5.88-14.84
			c-3.92-3.51-9.81-5.27-17.66-5.27h-21.09v40.21h21.09C150.05,108.52,155.94,106.77,159.86,103.25z"/>
		<path class="st11" d="M316.55,152.17h-15.69v43.16h-57.87V23.68h82.64c15.85,0,29.67,2.62,41.44,7.85
			c11.77,5.23,20.84,12.75,27.22,22.56c6.38,9.81,9.56,21.25,9.56,34.33c0,12.26-2.78,22.97-8.34,32.12
			c-5.56,9.16-13.57,16.43-24.03,21.82l36.05,52.97h-61.79L316.55,152.17z M339.6,73.58c-3.92-3.51-9.81-5.27-17.66-5.27h-21.09
			v40.21h21.09c7.85,0,13.73-1.75,17.66-5.27c3.92-3.51,5.88-8.46,5.88-14.83S343.52,77.1,339.6,73.58z"/>
		<path class="st11" d="M465.88,187.73c-14.71-7.68-26.24-18.35-34.57-32c-8.34-13.65-12.51-29.06-12.51-46.22
			s4.17-32.57,12.51-46.22c8.34-13.65,19.86-24.31,34.57-32c14.71-7.68,31.3-11.52,49.78-11.52c18.47,0,35.07,3.84,49.78,11.52
			c14.71,7.69,26.24,18.35,34.57,32c8.34,13.65,12.51,29.06,12.51,46.22s-4.17,32.57-12.51,46.22c-8.34,13.65-19.86,24.32-34.57,32
			c-14.71,7.68-31.31,11.52-49.78,11.52C497.18,199.25,480.59,195.41,465.88,187.73z M535.15,147.14c5.8-3.51,10.42-8.5,13.85-14.96
			c3.43-6.46,5.15-14.02,5.15-22.68c0-8.66-1.72-16.22-5.15-22.68c-3.43-6.46-8.05-11.44-13.85-14.96
			c-5.8-3.51-12.3-5.27-19.49-5.27c-7.2,0-13.69,1.76-19.49,5.27c-5.8,3.52-10.42,8.5-13.85,14.96c-3.43,6.46-5.15,14.02-5.15,22.68
			c0,8.67,1.72,16.23,5.15,22.68c3.43,6.46,8.05,11.44,13.85,14.96c5.8,3.52,12.3,5.27,19.49,5.27
			C522.85,152.42,529.34,150.66,535.15,147.14z"/>
		<path class="st11" d="M633.6,23.68h84.6c19.13,0,36,3.48,50.64,10.42c14.63,6.95,25.99,16.88,34.08,29.79
			c8.09,12.92,12.14,28.12,12.14,45.61c0,17.49-4.05,32.7-12.14,45.61c-8.09,12.92-19.46,22.85-34.08,29.79
			c-14.63,6.95-31.51,10.42-50.64,10.42h-84.6V23.68z M715.74,150.21c12.42,0,22.35-3.56,29.79-10.67
			c7.44-7.11,11.16-17.12,11.16-30.04c0-12.91-3.72-22.93-11.16-30.04c-7.44-7.11-17.37-10.67-29.79-10.67h-24.28v81.41H715.74z"/>
		<path class="st11" d="M856.74,177.92c-14.71-14.22-22.07-34.16-22.07-59.83V23.68h57.87v92.69c0,12.59,2.25,21.74,6.74,27.46
			c4.49,5.72,10.99,8.58,19.49,8.58c8.5,0,15-2.86,19.49-8.58c4.49-5.72,6.74-14.87,6.74-27.46V23.68h56.89v94.41
			c0,25.67-7.36,45.61-22.07,59.83c-14.71,14.22-35.23,21.33-61.55,21.33C891.96,199.25,871.45,192.14,856.74,177.92z"/>
		<path class="st11" d="M1068.1,187.85c-14.55-7.6-25.95-18.23-34.21-31.88c-8.26-13.65-12.38-29.14-12.38-46.47
			c0-17.33,4.13-32.82,12.38-46.47c8.25-13.65,19.66-24.28,34.21-31.88c14.55-7.6,30.9-11.4,49.04-11.4
			c16.67,0,31.55,2.94,44.63,8.83c13.08,5.89,23.87,14.39,32.37,25.5l-36.54,32.61c-10.63-13.4-23.13-20.11-37.52-20.11
			c-12.1,0-21.82,3.89-29.18,11.65c-7.36,7.77-11.03,18.19-11.03,31.26c0,13.08,3.68,23.5,11.03,31.26
			c7.36,7.77,17.08,11.65,29.18,11.65c14.38,0,26.89-6.7,37.52-20.11l36.54,32.61c-8.5,11.12-19.29,19.62-32.37,25.5
			c-13.08,5.88-27.95,8.83-44.63,8.83C1099,199.25,1082.65,195.45,1068.1,187.85z"/>
		<path class="st11" d="M1246.86,68.56h-50.27V23.68H1355v44.87h-50.27v126.77h-57.87V68.56z"/>
		<path class="st11" d="M1407.72,187.73c-14.71-7.68-26.24-18.35-34.58-32c-8.34-13.65-12.5-29.06-12.5-46.22s4.17-32.57,12.5-46.22
			c8.34-13.65,19.86-24.31,34.58-32c14.71-7.68,31.3-11.52,49.78-11.52c18.47,0,35.06,3.84,49.78,11.52
			c14.71,7.69,26.24,18.35,34.58,32c8.34,13.65,12.5,29.06,12.5,46.22s-4.17,32.57-12.5,46.22c-8.34,13.65-19.86,24.32-34.58,32
			c-14.71,7.68-31.31,11.52-49.78,11.52C1439.02,199.25,1422.43,195.41,1407.72,187.73z M1476.99,147.14
			c5.8-3.51,10.42-8.5,13.85-14.96c3.43-6.46,5.15-14.02,5.15-22.68c0-8.66-1.72-16.22-5.15-22.68
			c-3.43-6.46-8.05-11.44-13.85-14.96c-5.8-3.51-12.3-5.27-19.49-5.27c-7.2,0-13.69,1.76-19.49,5.27
			c-5.8,3.52-10.42,8.5-13.85,14.96c-3.43,6.46-5.15,14.02-5.15,22.68c0,8.67,1.72,16.23,5.15,22.68
			c3.43,6.46,8.05,11.44,13.85,14.96c5.8,3.52,12.3,5.27,19.49,5.27C1464.69,152.42,1471.18,150.66,1476.99,147.14z"/>
		<path class="st11" d="M1597.87,194.47c-13.49-3.19-24.56-7.48-33.23-12.87l18.64-42.18c8.17,4.74,17.33,8.54,27.46,11.4
			c10.13,2.86,19.86,4.29,29.18,4.29c8.01,0,13.73-0.77,17.16-2.33c3.43-1.55,5.15-3.88,5.15-6.99c0-3.59-2.25-6.29-6.74-8.09
			c-4.5-1.8-11.89-3.76-22.19-5.88c-13.24-2.78-24.28-5.76-33.1-8.95c-8.83-3.19-16.51-8.42-23.05-15.69
			c-6.54-7.27-9.81-17.12-9.81-29.55c0-10.79,3.02-20.6,9.07-29.42c6.05-8.83,15.08-15.77,27.09-20.84
			c12.02-5.06,26.61-7.6,43.77-7.6c11.77,0,23.33,1.27,34.7,3.8c11.36,2.54,21.37,6.25,30.04,11.16l-17.41,41.93
			c-16.84-8.5-32.78-12.75-47.82-12.75c-14.88,0-22.31,3.6-22.31,10.79c0,3.43,2.21,6.01,6.62,7.72c4.41,1.72,11.69,3.56,21.82,5.52
			c13.08,2.45,24.11,5.27,33.1,8.46c8.99,3.19,16.8,8.38,23.42,15.57c6.62,7.2,9.93,17,9.93,29.42c0,10.79-3.03,20.56-9.07,29.3
			c-6.05,8.75-15.08,15.69-27.1,20.84c-12.02,5.15-26.61,7.72-43.77,7.72C1625.21,199.25,1611.36,197.66,1597.87,194.47z"/>
	</g>
	<g>
		<path class="st4" d="M166.24,51.29c11.77,5.23,20.84,12.75,27.22,22.56c6.38,9.81,9.56,21.25,9.56,34.33
			c0,13.08-3.19,24.52-9.56,34.33c-6.38,9.81-15.45,17.33-27.22,22.56c-11.77,5.23-25.59,7.85-41.44,7.85h-24.77v42.18H42.17V43.44
			h82.64C140.65,43.44,154.47,46.06,166.24,51.29z M138.78,123.01c3.92-3.51,5.88-8.46,5.88-14.83s-1.96-11.32-5.88-14.84
			c-3.92-3.51-9.81-5.27-17.66-5.27h-21.09v40.21h21.09C128.97,128.28,134.85,126.53,138.78,123.01z"/>
		<path class="st4" d="M295.47,171.93h-15.69v43.16H221.9V43.44h82.64c15.85,0,29.67,2.62,41.44,7.85
			c11.77,5.23,20.84,12.75,27.22,22.56c6.38,9.81,9.56,21.25,9.56,34.33c0,12.26-2.78,22.97-8.34,32.12
			c-5.56,9.16-13.57,16.43-24.03,21.82l36.04,52.96h-61.79L295.47,171.93z M318.52,93.34c-3.92-3.51-9.81-5.27-17.66-5.27h-21.09
			v40.21h21.09c7.85,0,13.73-1.75,17.66-5.27c3.92-3.51,5.88-8.46,5.88-14.83S322.44,96.86,318.52,93.34z"/>
		<path class="st4" d="M444.8,207.48c-14.71-7.68-26.24-18.35-34.57-32c-8.34-13.65-12.51-29.06-12.51-46.22s4.17-32.57,12.51-46.22
			c8.34-13.65,19.86-24.31,34.57-32c14.71-7.68,31.3-11.52,49.78-11.52c18.47,0,35.07,3.84,49.78,11.52
			c14.71,7.69,26.24,18.35,34.57,32c8.34,13.65,12.51,29.06,12.51,46.22s-4.17,32.57-12.51,46.22c-8.34,13.65-19.86,24.32-34.57,32
			s-31.31,11.52-49.78,11.52C476.1,219.01,459.51,215.17,444.8,207.48z M514.07,166.9c5.8-3.51,10.42-8.5,13.85-14.96
			c3.43-6.46,5.15-14.02,5.15-22.68c0-8.66-1.72-16.22-5.15-22.68c-3.43-6.46-8.05-11.44-13.85-14.96
			c-5.8-3.51-12.3-5.27-19.49-5.27c-7.2,0-13.69,1.76-19.49,5.27c-5.8,3.52-10.42,8.5-13.85,14.96c-3.43,6.46-5.15,14.02-5.15,22.68
			c0,8.67,1.72,16.23,5.15,22.68c3.43,6.46,8.05,11.44,13.85,14.96c5.8,3.52,12.3,5.27,19.49,5.27
			C501.76,172.17,508.26,170.42,514.07,166.9z"/>
		<path class="st4" d="M612.52,43.44h84.6c19.13,0,36,3.48,50.64,10.42c14.63,6.95,25.99,16.88,34.08,29.79
			c8.09,12.92,12.14,28.12,12.14,45.61c0,17.49-4.05,32.7-12.14,45.61c-8.09,12.92-19.46,22.85-34.08,29.79
			c-14.63,6.95-31.51,10.42-50.64,10.42h-84.6V43.44z M694.66,169.97c12.42,0,22.35-3.56,29.79-10.67
			c7.44-7.11,11.16-17.12,11.16-30.04c0-12.91-3.72-22.93-11.16-30.04c-7.44-7.11-17.37-10.67-29.79-10.67h-24.28v81.41H694.66z"/>
		<path class="st4" d="M835.65,197.68c-14.71-14.22-22.07-34.16-22.07-59.83V43.44h57.87v92.69c0,12.59,2.25,21.74,6.74,27.46
			c4.49,5.72,10.99,8.58,19.49,8.58c8.5,0,15-2.86,19.49-8.58c4.49-5.72,6.74-14.87,6.74-27.46V43.44h56.89v94.41
			c0,25.67-7.36,45.61-22.07,59.83c-14.71,14.22-35.23,21.33-61.55,21.33C870.88,219.01,850.37,211.9,835.65,197.68z"/>
		<path class="st4" d="M1047.02,207.61c-14.55-7.6-25.95-18.23-34.21-31.88c-8.26-13.65-12.38-29.14-12.38-46.47
			c0-17.33,4.12-32.82,12.38-46.47c8.25-13.65,19.65-24.28,34.21-31.88c14.55-7.6,30.9-11.4,49.04-11.4
			c16.67,0,31.55,2.94,44.63,8.83c13.08,5.89,23.87,14.39,32.37,25.5l-36.54,32.61c-10.63-13.4-23.13-20.11-37.52-20.11
			c-12.1,0-21.82,3.89-29.18,11.65c-7.36,7.77-11.03,18.19-11.03,31.26c0,13.08,3.68,23.5,11.03,31.26
			c7.36,7.77,17.08,11.65,29.18,11.65c14.38,0,26.89-6.7,37.52-20.11l36.54,32.61c-8.5,11.12-19.29,19.62-32.37,25.5
			c-13.08,5.88-27.95,8.83-44.63,8.83C1077.92,219.01,1061.57,215.21,1047.02,207.61z"/>
		<path class="st4" d="M1225.78,88.31h-50.27V43.44h158.41v44.87h-50.27v126.77h-57.87V88.31z"/>
		<path class="st4" d="M1386.63,207.48c-14.71-7.68-26.24-18.35-34.57-32c-8.34-13.65-12.51-29.06-12.51-46.22
			s4.17-32.57,12.51-46.22c8.34-13.65,19.86-24.31,34.57-32c14.71-7.68,31.3-11.52,49.78-11.52c18.47,0,35.06,3.84,49.78,11.52
			c14.71,7.69,26.24,18.35,34.57,32c8.34,13.65,12.51,29.06,12.51,46.22s-4.17,32.57-12.51,46.22c-8.34,13.65-19.86,24.32-34.57,32
			s-31.31,11.52-49.78,11.52C1417.94,219.01,1401.35,215.17,1386.63,207.48z M1455.91,166.9c5.8-3.51,10.42-8.5,13.85-14.96
			c3.43-6.46,5.15-14.02,5.15-22.68c0-8.66-1.72-16.22-5.15-22.68c-3.43-6.46-8.05-11.44-13.85-14.96
			c-5.8-3.51-12.3-5.27-19.49-5.27c-7.2,0-13.69,1.76-19.49,5.27c-5.8,3.52-10.42,8.5-13.85,14.96c-3.43,6.46-5.15,14.02-5.15,22.68
			c0,8.67,1.72,16.23,5.15,22.68c3.43,6.46,8.05,11.44,13.85,14.96c5.8,3.52,12.3,5.27,19.49,5.27
			C1443.6,172.17,1450.1,170.42,1455.91,166.9z"/>
		<path class="st4" d="M1576.79,214.23c-13.49-3.19-24.56-7.48-33.22-12.87l18.63-42.18c8.17,4.74,17.33,8.54,27.46,11.4
			c10.13,2.86,19.86,4.29,29.18,4.29c8.01,0,13.73-0.77,17.16-2.33c3.43-1.55,5.15-3.88,5.15-6.99c0-3.59-2.25-6.29-6.74-8.09
			c-4.5-1.8-11.89-3.76-22.19-5.88c-13.24-2.78-24.28-5.76-33.1-8.95c-8.83-3.19-16.51-8.42-23.05-15.69
			c-6.54-7.27-9.81-17.12-9.81-29.55c0-10.79,3.02-20.6,9.07-29.42c6.05-8.83,15.08-15.77,27.1-20.84
			c12.02-5.06,26.61-7.6,43.77-7.6c11.77,0,23.33,1.27,34.7,3.8c11.36,2.54,21.37,6.25,30.04,11.16l-17.41,41.93
			c-16.84-8.5-32.78-12.75-47.82-12.75c-14.88,0-22.31,3.6-22.31,10.79c0,3.43,2.21,6.01,6.62,7.72s11.69,3.56,21.82,5.52
			c13.08,2.45,24.11,5.27,33.1,8.46c8.99,3.19,16.8,8.38,23.42,15.57c6.62,7.2,9.93,17,9.93,29.42c0,10.79-3.03,20.56-9.07,29.3
			c-6.05,8.75-15.08,15.69-27.1,20.84c-12.02,5.15-26.61,7.72-43.77,7.72C1604.13,219.01,1590.28,217.42,1576.79,214.23z"/>
	</g>
	<g>
		<path class="st12" d="M145.16,71.05C156.93,76.28,166,83.8,172.38,93.6c6.38,9.81,9.56,21.25,9.56,34.33
			c0,13.08-3.19,24.52-9.56,34.33c-6.38,9.81-15.45,17.33-27.22,22.56c-11.77,5.23-25.59,7.85-41.44,7.85H78.95v42.18H21.08V63.2
			h82.64C119.57,63.2,133.39,65.82,145.16,71.05z M117.69,142.77c3.92-3.51,5.88-8.46,5.88-14.83s-1.96-11.32-5.88-14.84
			c-3.92-3.51-9.81-5.27-17.66-5.27H78.95v40.21h21.09C107.89,148.04,113.77,146.29,117.69,142.77z"/>
		<path class="st12" d="M274.38,191.69h-15.69v43.16h-57.87V63.2h82.64c15.85,0,29.67,2.62,41.44,7.85
			c11.77,5.23,20.84,12.75,27.22,22.56c6.38,9.81,9.56,21.25,9.56,34.33c0,12.26-2.78,22.97-8.34,32.12
			c-5.56,9.16-13.57,16.43-24.03,21.82l36.05,52.96h-61.79L274.38,191.69z M297.43,113.1c-3.92-3.51-9.81-5.27-17.66-5.27h-21.09
			v40.21h21.09c7.85,0,13.73-1.75,17.66-5.27c3.92-3.51,5.88-8.46,5.88-14.83S301.36,116.62,297.43,113.1z"/>
		<path class="st12" d="M423.71,227.24c-14.71-7.68-26.24-18.35-34.57-32c-8.34-13.65-12.51-29.06-12.51-46.22
			s4.17-32.57,12.51-46.22c8.34-13.65,19.86-24.31,34.57-32c14.71-7.68,31.3-11.52,49.78-11.52c18.47,0,35.07,3.84,49.78,11.52
			c14.71,7.69,26.24,18.35,34.57,32c8.34,13.65,12.51,29.06,12.51,46.22s-4.17,32.57-12.51,46.22c-8.34,13.65-19.86,24.32-34.57,32
			c-14.71,7.68-31.31,11.52-49.78,11.52C455.02,238.77,438.43,234.92,423.71,227.24z M492.98,186.66c5.8-3.51,10.42-8.5,13.85-14.96
			c3.43-6.46,5.15-14.02,5.15-22.68c0-8.66-1.72-16.22-5.15-22.68c-3.43-6.46-8.05-11.44-13.85-14.96
			c-5.8-3.51-12.3-5.27-19.49-5.27c-7.2,0-13.69,1.76-19.49,5.27c-5.8,3.52-10.42,8.5-13.85,14.96c-3.43,6.46-5.15,14.02-5.15,22.68
			c0,8.67,1.72,16.23,5.15,22.68c3.43,6.46,8.05,11.44,13.85,14.96c5.8,3.52,12.3,5.27,19.49,5.27
			C480.68,191.93,487.18,190.18,492.98,186.66z"/>
		<path class="st12" d="M591.43,63.2h84.6c19.13,0,36,3.48,50.64,10.42c14.63,6.95,25.99,16.88,34.08,29.79
			c8.09,12.92,12.14,28.12,12.14,45.61c0,17.49-4.05,32.7-12.14,45.61c-8.09,12.92-19.46,22.85-34.08,29.79
			c-14.63,6.95-31.51,10.42-50.64,10.42h-84.6V63.2z M673.58,189.73c12.42,0,22.35-3.56,29.79-10.67
			c7.44-7.11,11.16-17.12,11.16-30.04c0-12.91-3.72-22.93-11.16-30.04c-7.44-7.11-17.37-10.67-29.79-10.67H649.3v81.41H673.58z"/>
		<path class="st12" d="M814.57,217.43c-14.71-14.22-22.07-34.16-22.07-59.83V63.2h57.87v92.69c0,12.59,2.25,21.74,6.74,27.46
			c4.49,5.72,10.99,8.58,19.49,8.58c8.5,0,15-2.86,19.49-8.58c4.49-5.72,6.74-14.87,6.74-27.46V63.2h56.89v94.41
			c0,25.67-7.36,45.61-22.07,59.83c-14.71,14.22-35.23,21.33-61.55,21.33C849.8,238.77,829.28,231.66,814.57,217.43z"/>
		<path class="st12" d="M1025.94,227.37c-14.55-7.6-25.95-18.23-34.21-31.88c-8.26-13.65-12.38-29.14-12.38-46.47
			c0-17.33,4.13-32.82,12.38-46.47c8.25-13.65,19.66-24.28,34.21-31.88c14.55-7.6,30.9-11.4,49.04-11.4
			c16.67,0,31.55,2.94,44.63,8.83c13.08,5.89,23.87,14.39,32.37,25.5l-36.54,32.61c-10.63-13.4-23.13-20.11-37.52-20.11
			c-12.1,0-21.82,3.89-29.18,11.65c-7.36,7.77-11.03,18.19-11.03,31.26c0,13.08,3.68,23.5,11.03,31.26
			c7.36,7.77,17.08,11.65,29.18,11.65c14.38,0,26.89-6.7,37.52-20.11l36.54,32.61c-8.5,11.12-19.29,19.62-32.37,25.5
			c-13.08,5.88-27.95,8.83-44.63,8.83C1056.84,238.77,1040.49,234.97,1025.94,227.37z"/>
		<path class="st12" d="M1204.7,108.07h-50.27V63.2h158.41v44.87h-50.27v126.77h-57.87V108.07z"/>
		<path class="st12" d="M1365.55,227.24c-14.71-7.68-26.24-18.35-34.58-32c-8.34-13.65-12.5-29.06-12.5-46.22s4.17-32.57,12.5-46.22
			c8.34-13.65,19.86-24.31,34.58-32c14.71-7.68,31.3-11.52,49.78-11.52c18.47,0,35.06,3.84,49.78,11.52
			c14.71,7.69,26.24,18.35,34.58,32c8.34,13.65,12.5,29.06,12.5,46.22s-4.17,32.57-12.5,46.22c-8.34,13.65-19.86,24.32-34.58,32
			c-14.71,7.68-31.31,11.52-49.78,11.52C1396.85,238.77,1380.26,234.92,1365.55,227.24z M1434.82,186.66
			c5.8-3.51,10.42-8.5,13.85-14.96c3.43-6.46,5.15-14.02,5.15-22.68c0-8.66-1.72-16.22-5.15-22.68
			c-3.43-6.46-8.05-11.44-13.85-14.96c-5.8-3.51-12.3-5.27-19.49-5.27c-7.2,0-13.69,1.76-19.49,5.27
			c-5.8,3.52-10.42,8.5-13.85,14.96c-3.43,6.46-5.15,14.02-5.15,22.68c0,8.67,1.72,16.23,5.15,22.68
			c3.43,6.46,8.05,11.44,13.85,14.96c5.8,3.52,12.3,5.27,19.49,5.27C1422.52,191.93,1429.02,190.18,1434.82,186.66z"/>
		<path class="st12" d="M1555.71,233.99c-13.49-3.19-24.56-7.48-33.23-12.87l18.64-42.18c8.17,4.74,17.33,8.54,27.46,11.4
			c10.13,2.86,19.86,4.29,29.18,4.29c8.01,0,13.73-0.77,17.16-2.33c3.43-1.55,5.15-3.88,5.15-6.99c0-3.59-2.25-6.29-6.74-8.09
			c-4.5-1.8-11.89-3.76-22.19-5.88c-13.24-2.78-24.28-5.76-33.1-8.95c-8.83-3.19-16.51-8.42-23.05-15.69
			c-6.54-7.27-9.81-17.12-9.81-29.55c0-10.79,3.02-20.6,9.07-29.42c6.05-8.83,15.08-15.77,27.09-20.84
			c12.02-5.06,26.61-7.6,43.77-7.6c11.77,0,23.33,1.27,34.7,3.8c11.36,2.54,21.37,6.25,30.04,11.16l-17.41,41.93
			c-16.84-8.5-32.78-12.75-47.82-12.75c-14.88,0-22.31,3.6-22.31,10.79c0,3.43,2.21,6.01,6.62,7.72c4.41,1.72,11.69,3.56,21.82,5.52
			c13.08,2.45,24.11,5.27,33.1,8.46c8.99,3.19,16.8,8.38,23.42,15.57c6.62,7.2,9.93,17,9.93,29.42c0,10.79-3.03,20.56-9.07,29.3
			c-6.05,8.75-15.08,15.69-27.1,20.84c-12.02,5.15-26.61,7.72-43.77,7.72C1583.05,238.77,1569.2,237.17,1555.71,233.99z"/>
	</g>
	<g>
		<path class="st13" d="M124.08,90.8c11.77,5.23,20.84,12.75,27.22,22.56c6.38,9.81,9.56,21.25,9.56,34.33
			c0,13.08-3.19,24.52-9.56,34.33c-6.38,9.81-15.45,17.33-27.22,22.56c-11.77,5.23-25.59,7.85-41.44,7.85H57.87v42.18H0V82.96h82.63
			C98.49,82.96,112.3,85.57,124.08,90.8z M96.61,162.53c3.92-3.51,5.89-8.46,5.89-14.83s-1.96-11.32-5.89-14.84
			c-3.92-3.51-9.81-5.27-17.65-5.27H57.87v40.21h21.09C86.8,167.8,92.69,166.04,96.61,162.53z"/>
		<path class="st13" d="M253.3,211.45h-15.69v43.16h-57.87V82.96h82.63c15.85,0,29.67,2.62,41.44,7.85
			c11.77,5.23,20.84,12.75,27.22,22.56c6.38,9.81,9.56,21.25,9.56,34.33c0,12.26-2.78,22.97-8.34,32.12
			c-5.56,9.16-13.57,16.43-24.03,21.82l36.05,52.96h-61.79L253.3,211.45z M276.35,132.86c-3.92-3.51-9.81-5.27-17.65-5.27h-21.09
			v40.21h21.09c7.85,0,13.73-1.75,17.65-5.27c3.92-3.51,5.89-8.46,5.89-14.83S280.27,136.37,276.35,132.86z"/>
		<path class="st13" d="M402.63,247c-14.71-7.68-26.24-18.35-34.57-32c-8.34-13.65-12.51-29.06-12.51-46.22
			c0-17.16,4.17-32.57,12.51-46.22c8.34-13.65,19.86-24.31,34.57-32c14.71-7.68,31.3-11.52,49.78-11.52
			c18.47,0,35.06,3.84,49.78,11.52c14.71,7.69,26.24,18.35,34.57,32c8.34,13.65,12.51,29.06,12.51,46.22
			c0,17.17-4.17,32.57-12.51,46.22c-8.34,13.65-19.86,24.32-34.57,32c-14.71,7.68-31.31,11.52-49.78,11.52
			C433.93,258.53,417.34,254.68,402.63,247z M471.9,206.42c5.8-3.51,10.42-8.5,13.85-14.96c3.43-6.46,5.15-14.02,5.15-22.68
			c0-8.66-1.72-16.22-5.15-22.68c-3.43-6.46-8.05-11.44-13.85-14.96c-5.8-3.51-12.3-5.27-19.49-5.27c-7.2,0-13.69,1.76-19.49,5.27
			c-5.8,3.52-10.42,8.5-13.85,14.96c-3.43,6.46-5.15,14.02-5.15,22.68c0,8.67,1.72,16.23,5.15,22.68
			c3.43,6.46,8.05,11.44,13.85,14.96c5.8,3.52,12.3,5.27,19.49,5.27C459.6,211.69,466.1,209.94,471.9,206.42z"/>
		<path class="st13" d="M570.35,82.96h84.6c19.13,0,36,3.48,50.64,10.42c14.63,6.95,25.99,16.88,34.08,29.79
			c8.09,12.92,12.14,28.12,12.14,45.61c0,17.49-4.05,32.7-12.14,45.61c-8.09,12.92-19.46,22.85-34.08,29.79
			c-14.63,6.95-31.51,10.42-50.64,10.42h-84.6V82.96z M652.5,209.49c12.42,0,22.35-3.56,29.79-10.67
			c7.44-7.11,11.16-17.12,11.16-30.04c0-12.91-3.72-22.93-11.16-30.04c-7.44-7.11-17.37-10.67-29.79-10.67h-24.28v81.41H652.5z"/>
		<path class="st13" d="M793.49,237.19c-14.71-14.22-22.07-34.16-22.07-59.83V82.96h57.87v92.69c0,12.59,2.25,21.74,6.74,27.46
			c4.49,5.72,10.99,8.58,19.49,8.58c8.5,0,15-2.86,19.49-8.58c4.49-5.72,6.74-14.87,6.74-27.46V82.96h56.89v94.41
			c0,25.67-7.36,45.61-22.07,59.83c-14.71,14.22-35.23,21.33-61.55,21.33C828.71,258.53,808.2,251.42,793.49,237.19z"/>
		<path class="st13" d="M1004.86,247.12c-14.55-7.6-25.95-18.23-34.21-31.88c-8.26-13.65-12.38-29.14-12.38-46.47
			c0-17.33,4.13-32.82,12.38-46.47c8.25-13.65,19.66-24.28,34.21-31.88c14.55-7.6,30.9-11.4,49.04-11.4
			c16.67,0,31.55,2.94,44.63,8.83c13.08,5.89,23.87,14.39,32.37,25.5l-36.54,32.61c-10.63-13.4-23.13-20.11-37.52-20.11
			c-12.1,0-21.82,3.89-29.18,11.65c-7.36,7.77-11.03,18.19-11.03,31.26c0,13.08,3.68,23.5,11.03,31.26
			c7.36,7.77,17.08,11.65,29.18,11.65c14.38,0,26.89-6.7,37.52-20.11l36.54,32.61c-8.5,11.12-19.29,19.62-32.37,25.5
			c-13.08,5.88-27.95,8.83-44.63,8.83C1035.75,258.53,1019.4,254.73,1004.86,247.12z"/>
		<path class="st13" d="M1183.61,127.83h-50.27V82.96h158.41v44.87h-50.27V254.6h-57.87V127.83z"/>
		<path class="st13" d="M1344.47,247c-14.71-7.68-26.24-18.35-34.58-32c-8.34-13.65-12.5-29.06-12.5-46.22
			c0-17.16,4.17-32.57,12.5-46.22c8.34-13.65,19.86-24.31,34.58-32c14.71-7.68,31.3-11.52,49.78-11.52
			c18.47,0,35.06,3.84,49.78,11.52c14.71,7.69,26.24,18.35,34.58,32c8.34,13.65,12.5,29.06,12.5,46.22
			c0,17.17-4.17,32.57-12.5,46.22c-8.34,13.65-19.86,24.32-34.58,32c-14.71,7.68-31.31,11.52-49.78,11.52
			C1375.77,258.53,1359.18,254.68,1344.47,247z M1413.74,206.42c5.8-3.51,10.42-8.5,13.85-14.96c3.43-6.46,5.15-14.02,5.15-22.68
			c0-8.66-1.72-16.22-5.15-22.68c-3.43-6.46-8.05-11.44-13.85-14.96c-5.8-3.51-12.3-5.27-19.49-5.27c-7.2,0-13.69,1.76-19.49,5.27
			c-5.8,3.52-10.42,8.5-13.85,14.96c-3.43,6.46-5.15,14.02-5.15,22.68c0,8.67,1.72,16.23,5.15,22.68
			c3.43,6.46,8.05,11.44,13.85,14.96c5.8,3.52,12.3,5.27,19.49,5.27C1401.44,211.69,1407.94,209.94,1413.74,206.42z"/>
		<path class="st13" d="M1534.63,253.75c-13.49-3.19-24.56-7.48-33.23-12.87l18.64-42.18c8.17,4.74,17.33,8.54,27.46,11.4
			c10.13,2.86,19.86,4.29,29.18,4.29c8.01,0,13.73-0.77,17.16-2.33c3.43-1.55,5.15-3.88,5.15-6.99c0-3.59-2.25-6.29-6.74-8.09
			c-4.5-1.8-11.89-3.76-22.19-5.88c-13.24-2.78-24.28-5.76-33.1-8.95c-8.83-3.19-16.51-8.42-23.05-15.69
			c-6.54-7.27-9.81-17.12-9.81-29.55c0-10.79,3.02-20.6,9.07-29.42c6.05-8.83,15.08-15.77,27.09-20.84
			c12.02-5.06,26.61-7.6,43.77-7.6c11.77,0,23.33,1.27,34.7,3.8c11.36,2.54,21.37,6.25,30.04,11.16l-17.41,41.93
			c-16.84-8.5-32.78-12.75-47.82-12.75c-14.88,0-22.31,3.6-22.31,10.79c0,3.43,2.21,6.01,6.62,7.72c4.41,1.72,11.69,3.56,21.82,5.52
			c13.08,2.45,24.11,5.27,33.1,8.46c8.99,3.19,16.8,8.38,23.42,15.57c6.62,7.2,9.93,17,9.93,29.42c0,10.79-3.03,20.56-9.07,29.3
			c-6.05,8.75-15.08,15.69-27.1,20.84c-12.02,5.15-26.61,7.72-43.77,7.72C1561.97,258.53,1548.11,256.93,1534.63,253.75z"/>
	</g>
</g>
</svg>
